<?xml version="1.0" encoding="UTF-8" standalone="no"?>
<svg
   xmlns:dc="http://purl.org/dc/elements/1.1/"
   xmlns:cc="http://creativecommons.org/ns#"
   xmlns:rdf="http://www.w3.org/1999/02/22-rdf-syntax-ns#"
   xmlns:svg="http://www.w3.org/2000/svg"
   xmlns="http://www.w3.org/2000/svg"
   xmlns:sodipodi="http://sodipodi.sourceforge.net/DTD/sodipodi-0.dtd"
   xmlns:inkscape="http://www.inkscape.org/namespaces/inkscape"
   version="1.0"
   width="1280.000000pt"
   height="1234.000000pt"
   viewBox="0 0 1280.000000 1234.000000"
   preserveAspectRatio="xMidYMid meet"
   id="svg60"
   sodipodi:docname="splash2.svg"
   inkscape:version="1.0.2-2 (e86c870879, 2021-01-15)">
  <defs
     id="defs64" />
  <sodipodi:namedview
     pagecolor="#ffffff"
     bordercolor="#666666"
     borderopacity="1"
     objecttolerance="10"
     gridtolerance="10"
     guidetolerance="10"
     inkscape:pageopacity="0"
     inkscape:pageshadow="2"
     inkscape:window-width="1304"
     inkscape:window-height="745"
     id="namedview62"
     showgrid="false"
     inkscape:zoom="0.30024311"
     inkscape:cx="853.33333"
     inkscape:cy="822.66667"
     inkscape:window-x="-8"
     inkscape:window-y="-8"
     inkscape:window-maximized="1"
     inkscape:current-layer="svg60"
     inkscape:document-rotation="0" />
  <metadata
     id="metadata2">
Created by potrace 1.15, written by Peter Selinger 2001-2017
<rdf:RDF>
  <cc:Work
     rdf:about="">
    <dc:format>image/svg+xml</dc:format>
    <dc:type
       rdf:resource="http://purl.org/dc/dcmitype/StillImage" />
  </cc:Work>
</rdf:RDF>
</metadata>
  <g
     transform="translate(0.000000,1234.000000) scale(0.100000,-0.100000)"
     fill="#000000"
     stroke="none"
     id="g58"
     style="fill:#1a1a4f;fill-opacity:1">
    <path
       d="M3980 12321 c-5 -11 -10 -26 -10 -33 0 -19 -64 -88 -81 -88 -8 0 -29 9 -48 21 -39 23 -84 28 -105 10 -12 -10 -14 -27 -9 -74 5 -64 -24 -215 -48 -244 -7 -7 -29 -16 -51 -20 -62 -9 -151 -82 -184 -149 -20 -40 -37 -60 -63 -74 -21 -10 -62 -48 -92 -84 -56 -69 -77 -77 -94 -38 -13 31 -49 38 -81 18 -23 -16 -25 -23 -23 -79 4 -128 -44 -214 -133 -238 -55 -14 -78 1 -78 52 0 22 -5 49 -10 60 -18 33 -83 59 -149 59 -77 0 -88 -5 -112 -51 -21 -43 -48 -50 -83 -24 -11 8 -31 15 -45 15 -14 1 -37 7 -51 15 -14 8 -46 14 -71 15 -53 0 -89 -29 -89 -72 0 -35 47 -136 81 -175 55 -64 59 -153 6 -153 -55 0 -95 -68 -82 -138 4 -20 22 -53 41 -74 19 -21 34 -49 34 -61 0 -28 -29 -57 -56 -57 -25 0 -80 39 -121 87 -28 33 -36 37 -86 39 -75 3 -103 24 -123 90 -24 82 -122 163 -180 148 -13 -3 -31 -4 -39 0 -14 5 -14 9 0 35 26 51 20 88 -17 107 -31 16 -32 16 -50 -7 -50 -66 -77 -75 -104 -34 -21 32 -58 35 -48 3 22 -70 61 -116 111 -132 18 -6 20 -12 16 -46 -7 -52 1 -81 33 -115 30 -32 28 -59 -7 -130 -27 -55 -22 -75 26 -102 49 -27 58 -50 45 -125 -21 -131 -96 -167 -157 -76 -31 47 -85 88 -115 88 -33 0 -127 -31 -143 -46 -25 -25 -19 -84 12 -116 24 -25 25 -28 8 -34 -13 -5 -23 0 -37 19 -11 15 -27 27 -37 27 -9 0 -48 -21 -86 -46 -59 -39 -73 -45 -102 -39 -48 9 -63 -7 -63 -67 0 -39 -5 -54 -25 -73 -13 -14 -35 -25 -49 -25 -42 0 -58 -26 -51 -80 6 -43 4 -47 -19 -58 -37 -16 -32 -37 16 -72 33 -24 51 -30 93 -30 55 0 82 -17 71 -45 -4 -10 -19 -15 -49 -15 -52 0 -64 -9 -110 -82 -20 -31 -50 -64 -66 -73 -17 -8 -33 -25 -36 -38 -6 -23 35 -155 60 -193 20 -31 38 -119 31 -148 -3 -14 -19 -29 -36 -36 -35 -15 -38 -25 -10 -42 23 -15 27 -65 7 -92 -11 -15 -31 -19 -116 -22 -93 -3 -107 -1 -151 21 -27 14 -64 43 -81 65 -31 38 -122 100 -148 100 -16 0 -14 -55 3 -69 8 -6 23 -34 35 -62 18 -41 20 -56 12 -86 -10 -36 -9 -39 29 -76 46 -44 49 -64 16 -104 -12 -15 -28 -37 -34 -49 -10 -18 -24 -22 -107 -28 -86 -7 -99 -5 -129 13 -45 28 -97 27 -146 -4 -48 -30 -51 -56 -15 -106 73 -101 79 -112 78 -148 0 -20 -4 -49 -8 -64 -6 -22 -3 -35 13 -57 11 -15 25 -43 29 -61 7 -27 15 -35 42 -40 52 -11 63 -29 70 -115 6 -68 10 -79 36 -101 23 -20 36 -24 64 -19 20 3 41 2 48 -2 22 -13 53 -96 53 -140 0 -59 29 -98 82 -113 53 -14 95 -56 104 -105 7 -36 5 -40 -31 -69 -87 -68 -87 -69 -92 -120 -2 -28 -14 -71 -25 -97 l-21 -46 24 -44 c19 -33 30 -43 49 -43 24 0 25 3 22 52 -3 63 16 106 58 128 27 14 32 13 63 -5 41 -24 65 -18 73 19 3 14 7 36 10 49 7 37 41 28 64 -18 11 -21 29 -44 39 -49 10 -6 28 -26 40 -46 16 -28 27 -35 51 -35 41 0 48 -24 20 -62 -21 -29 -22 -35 -11 -77 6 -25 21 -59 32 -74 17 -23 19 -37 14 -77 -6 -42 -4 -50 16 -69 13 -11 26 -21 30 -21 13 0 99 -135 99 -154 0 -22 16 -53 46 -89 26 -30 32 -77 12 -77 -7 0 -30 19 -50 42 -31 36 -40 41 -55 32 -50 -29 -63 -118 -28 -183 7 -14 21 -59 30 -100 20 -86 17 -91 -57 -91 -42 0 -52 5 -87 40 -66 67 -96 48 -75 -48 6 -31 15 -64 19 -74 7 -19 46 -36 90 -40 29 -3 30 -4 27 -54 -3 -37 3 -65 22 -108 33 -74 33 -83 -4 -133 -17 -22 -37 -60 -45 -84 -9 -24 -26 -55 -39 -69 -60 -64 -82 -170 -49 -236 11 -21 26 -68 33 -104 16 -81 43 -141 72 -159 13 -8 50 -17 83 -20 l60 -6 -3 -32 c-4 -38 0 -40 96 -64 43 -11 84 -22 93 -24 10 -3 34 9 59 30 68 57 134 41 146 -36 8 -51 25 -58 74 -30 21 11 40 21 44 21 3 0 21 -14 40 -30 40 -35 79 -138 74 -192 -2 -27 -8 -34 -30 -36 -33 -4 -100 53 -129 109 -10 21 -23 41 -29 44 -6 4 -40 -19 -75 -51 -93 -81 -90 -104 26 -212 64 -60 68 -62 120 -62 46 0 56 4 74 26 21 26 22 26 54 10 18 -10 48 -16 66 -15 34 3 65 -14 65 -37 0 -7 13 -22 30 -34 17 -12 34 -36 40 -58 14 -53 14 -54 -22 -32 -18 11 -43 20 -55 20 -24 0 -45 30 -42 58 3 33 -1 40 -30 52 -82 33 -113 -48 -47 -120 13 -14 31 -39 41 -57 16 -27 17 -34 5 -48 -23 -28 -98 -15 -154 25 -63 45 -99 45 -143 -3 -18 -20 -33 -41 -33 -46 0 -20 42 -60 70 -66 20 -4 39 -21 58 -48 l28 -42 67 0 c78 0 92 -10 89 -65 -3 -44 13 -59 45 -42 15 9 18 24 18 99 0 48 6 100 12 115 l12 26 55 -17 c31 -9 67 -28 81 -41 l26 -25 18 23 c21 28 31 20 31 -25 0 -29 -3 -33 -25 -33 -21 0 -29 -9 -45 -45 -21 -49 -34 -54 -80 -30 -16 8 -36 12 -44 9 -20 -8 -21 -38 -2 -53 7 -6 16 -28 20 -49 3 -24 21 -55 52 -90 42 -48 50 -53 82 -50 27 2 40 10 51 29 13 24 12 28 -14 63 -26 34 -27 39 -16 79 16 56 35 80 58 73 25 -8 86 -100 81 -123 -2 -10 -20 -27 -41 -38 -20 -11 -37 -25 -37 -32 0 -6 33 -35 73 -63 77 -55 70 -53 178 -35 51 9 66 -11 52 -72 -9 -38 -8 -53 4 -79 22 -45 12 -64 -34 -64 -93 0 -150 -40 -174 -120 -14 -48 3 -162 32 -209 19 -31 83 -66 140 -76 30 -5 41 -2 68 21 50 41 82 115 88 201 3 40 9 76 13 78 13 8 132 -68 148 -95 30 -48 56 -70 81 -70 14 0 51 -12 81 -26 38 -18 79 -28 132 -31 73 -6 79 -8 103 -39 18 -23 40 -37 79 -48 30 -9 67 -27 83 -40 48 -40 109 -67 173 -76 63 -9 105 -29 128 -62 23 -32 72 -16 72 23 0 24 22 30 66 18 69 -20 153 10 174 61 16 38 55 70 86 70 32 0 171 -102 300 -220 90 -82 116 -101 157 -111 75 -18 101 -7 188 76 98 94 141 103 84 19 -28 -42 -32 -88 -11 -139 18 -42 35 -44 84 -10 43 29 92 32 114 8 9 -10 25 -39 36 -65 24 -56 44 -68 112 -68 28 0 60 -4 70 -10 27 -15 167 15 213 46 33 22 46 25 87 19 30 -4 50 -3 55 4 10 17 36 13 69 -12 17 -13 39 -26 48 -30 30 -11 118 19 152 52 38 37 57 38 103 10 24 -15 43 -20 64 -15 19 3 42 0 59 -9 51 -26 68 -20 81 29 20 80 75 103 63 26 -6 -35 -4 -40 22 -53 16 -8 51 -18 77 -22 60 -9 100 -41 133 -106 27 -55 50 -72 113 -89 42 -11 117 -53 134 -75 4 -5 10 -23 14 -38 7 -32 29 -47 70 -47 42 0 53 -17 53 -82 0 -71 21 -125 53 -137 12 -5 44 -7 70 -4 54 6 73 -5 82 -47 10 -44 30 -56 61 -35 24 15 26 21 19 59 -11 66 -7 93 21 141 22 39 24 49 15 76 -13 38 -10 43 38 74 23 14 46 40 59 67 11 24 27 50 36 57 23 19 20 63 -6 96 -24 31 -27 79 -8 115 15 29 56 22 113 -20 25 -18 53 -30 71 -30 41 0 93 33 114 71 40 73 76 121 138 180 62 61 65 66 59 101 -5 29 -1 45 19 77 l26 41 73 2 c39 1 98 0 130 -1 80 -4 112 11 132 63 14 37 14 47 0 108 -8 37 -14 86 -14 110 1 24 -3 54 -10 67 -7 12 -10 25 -7 28 9 9 56 -27 65 -50 10 -25 65 -79 98 -96 12 -6 34 -11 50 -11 28 0 139 -20 253 -46 46 -10 109 -13 215 -11 133 3 153 1 175 -15 31 -22 130 -37 130 -19 0 7 -14 30 -31 51 -42 51 -34 80 21 80 22 0 58 -10 81 -21 26 -14 71 -25 125 -30 70 -6 99 -15 177 -53 57 -27 101 -56 111 -71 24 -37 56 -30 79 18 11 23 28 42 45 48 15 5 41 16 57 24 17 8 66 16 110 18 57 3 92 10 121 26 33 17 46 20 68 11 15 -5 58 -10 95 -10 64 0 69 -2 101 -35 l34 -35 125 1 c70 1 140 4 156 8 17 3 54 2 84 -3 50 -9 55 -8 72 13 12 15 19 40 19 70 1 25 10 71 21 101 11 30 23 66 26 80 7 38 -31 68 -103 81 -32 6 -75 21 -94 34 -19 14 -50 29 -68 36 -22 8 -39 24 -53 51 -24 48 -41 55 -75 33 -31 -20 -78 -16 -82 7 -3 13 10 21 52 33 42 12 63 25 82 51 15 19 35 34 46 34 18 0 81 -31 146 -72 l33 -20 54 20 c57 22 80 20 132 -10 29 -17 34 -18 60 -4 15 8 41 31 56 50 34 43 67 62 129 71 38 6 55 15 84 47 36 41 41 70 19 121 -6 14 -2 17 25 17 25 0 42 9 69 38 53 55 102 82 149 82 43 0 86 27 182 113 97 88 86 114 -63 146 -54 12 -110 21 -125 21 -15 0 -49 12 -77 26 -42 21 -59 25 -102 20 -28 -3 -64 -1 -78 4 -18 7 -39 7 -65 0 -41 -11 -147 10 -185 36 -24 17 -51 18 -109 2 -37 -10 -51 -9 -83 5 -21 9 -58 19 -83 23 -55 8 -119 57 -156 120 -25 42 -60 64 -83 50 -26 -17 -38 25 -45 157 -6 111 -4 142 8 172 9 21 16 56 16 80 0 23 5 56 11 73 7 20 8 47 2 74 -12 59 -6 86 23 104 19 13 27 14 39 4 22 -18 18 -51 -10 -102 -21 -39 -23 -47 -11 -57 11 -9 24 -5 62 19 26 16 53 30 60 30 7 0 24 14 38 32 24 32 26 32 61 19 48 -17 80 3 95 59 6 22 24 55 40 74 16 18 35 51 42 72 22 68 76 54 76 -19 0 -16 6 -36 15 -44 13 -13 18 -13 45 1 17 9 34 29 40 46 6 16 15 30 19 30 5 0 16 -22 26 -49 27 -76 106 -130 124 -85 4 10 -4 24 -23 39 -33 27 -29 43 19 79 25 18 27 18 52 2 17 -11 36 -15 51 -12 23 6 24 10 24 84 0 52 7 96 20 135 11 31 20 66 20 77 0 36 -27 74 -67 97 -60 34 -76 57 -69 95 3 18 11 71 17 118 6 47 15 90 20 96 5 6 8 51 7 100 -1 66 4 107 20 160 28 91 28 121 -3 194 -20 48 -25 76 -25 149 0 106 -5 121 -73 223 -48 73 -56 80 -102 93 -27 8 -72 17 -99 21 -46 6 -179 69 -218 102 -10 8 -21 31 -24 51 -8 44 -17 61 -60 118 -19 25 -34 50 -34 58 0 7 -13 39 -30 70 -16 31 -30 63 -30 70 0 23 40 63 70 70 42 9 79 42 97 86 16 40 21 42 83 39 30 -2 52 -19 165 -129 92 -91 139 -129 161 -134 19 -4 41 -19 58 -41 15 -20 32 -36 38 -36 24 0 120 -74 143 -110 23 -37 65 -60 109 -60 12 0 43 -8 69 -17 l48 -17 52 56 c40 43 61 58 92 64 36 6 41 4 60 -22 61 -85 94 -97 180 -64 85 32 109 34 155 16 57 -23 67 -21 110 22 21 20 51 45 65 56 15 10 35 37 45 60 9 22 37 63 61 90 37 42 44 56 44 92 0 55 -22 78 -142 151 -62 38 -95 65 -101 82 -26 73 -42 128 -42 142 0 8 -19 38 -42 67 -24 28 -52 65 -63 83 -31 50 -63 68 -147 82 -98 17 -141 6 -146 -35 -3 -21 -10 -29 -30 -34 -53 -12 -57 -14 -74 -43 -22 -40 -60 -63 -113 -69 -53 -6 -65 10 -41 57 25 48 21 85 -15 115 -37 32 -82 34 -124 6 -16 -11 -44 -20 -60 -20 -17 0 -45 -4 -64 -10 -28 -8 -40 -6 -68 11 -27 17 -43 20 -77 15 -35 -6 -66 1 -162 32 -66 22 -139 43 -164 47 -56 9 -71 17 -145 75 -33 25 -68 51 -78 57 -10 5 -28 27 -40 48 -32 57 -50 64 -87 37 -48 -36 -54 -23 -46 96 4 79 11 114 26 139 23 40 25 68 5 103 -8 14 -14 38 -15 54 0 31 -13 79 -36 134 -20 46 -17 99 6 132 11 15 24 39 30 54 11 29 -2 47 -64 89 -15 10 -26 27 -26 41 0 44 -30 122 -65 165 -19 24 -35 54 -35 66 0 12 -11 54 -25 93 -18 52 -25 92 -25 147 0 67 -3 79 -25 100 -20 21 -34 25 -79 25 -50 0 -56 -3 -86 -37 -18 -20 -39 -51 -46 -69 -8 -18 -18 -35 -23 -38 -5 -4 -12 -19 -16 -34 -3 -16 -21 -50 -40 -77 -19 -27 -35 -54 -35 -61 0 -22 -24 -31 -97 -38 l-72 -7 -55 50 c-102 93 -173 114 -201 61 -18 -34 -27 -37 -49 -14 -11 10 -16 34 -16 69 0 30 -4 57 -10 60 -19 12 -83 -8 -116 -37 l-33 -29 -31 22 c-28 21 -34 22 -78 11 -26 -7 -66 -22 -89 -33 -52 -25 -67 -18 -58 27 7 42 -15 94 -57 129 -34 29 -51 31 -72 9 -22 -21 -20 -64 4 -94 30 -38 26 -83 -11 -119 -17 -17 -36 -31 -43 -31 -16 0 -39 26 -60 68 -23 45 -50 42 -76 -8 -20 -39 -26 -96 -12 -115 4 -6 25 -21 47 -34 48 -28 54 -36 81 -129 24 -82 22 -87 -46 -96 -71 -9 -76 -9 -117 17 -47 31 -73 36 -189 41 -86 3 -95 6 -170 48 -66 36 -80 49 -84 73 l-5 30 -81 -4 c-76 -3 -83 -1 -98 20 -9 13 -16 36 -16 52 0 45 -17 65 -63 77 -72 18 -85 27 -92 62 -4 18 -16 44 -26 57 -26 32 -24 57 6 83 35 30 33 52 -2 44 -98 -22 -100 -21 -206 71 -25 23 -47 33 -70 33 -46 0 -52 7 -82 85 -41 105 -36 100 -96 100 -39 0 -64 6 -91 23 -33 21 -38 28 -38 63 0 35 -5 42 -52 77 -29 21 -73 51 -98 67 -58 35 -125 99 -157 149 l-25 39 20 26 c17 23 82 71 174 126 33 20 43 40 53 107 4 24 21 55 45 84 35 39 40 52 40 93 0 34 -8 59 -28 92 -45 72 -53 98 -58 188 -8 125 -9 131 -43 131 -20 0 -32 -7 -41 -26 -15 -27 -35 -28 -113 -9 -23 6 -33 1 -68 -35 -38 -39 -41 -45 -34 -79 16 -80 14 -84 -43 -110 -60 -28 -63 -45 -8 -47 49 -1 90 -32 94 -72 5 -46 -21 -55 -132 -47 -122 9 -153 -3 -192 -76 -20 -38 -44 -64 -79 -86 -27 -18 -67 -51 -88 -74 -38 -41 -38 -41 -59 -23 -11 11 -31 42 -43 69 -28 62 -54 86 -94 87 -43 1 -60 -17 -67 -75 -7 -47 -31 -87 -54 -87 -18 0 -60 48 -60 69 0 36 22 69 54 81 53 20 61 26 64 54 2 17 -5 37 -22 57 -18 21 -26 42 -26 69 0 40 10 53 50 65 59 17 78 66 39 101 -15 13 -35 18 -74 18 -73 -1 -100 -21 -119 -86 -9 -29 -20 -59 -24 -66 -14 -22 -174 -73 -188 -61 -26 21 -28 76 -5 105 28 36 27 75 -4 104 -30 29 -31 44 -4 105 21 47 21 49 3 62 -10 7 -30 13 -46 13 -32 0 -48 24 -48 69 0 28 -29 71 -48 71 -4 0 -24 -11 -44 -25 -44 -30 -120 -34 -157 -9 -21 15 -22 21 -17 93 2 42 8 95 11 119 8 47 -10 59 -32 22 -15 -23 -82 -43 -117 -34 -38 9 -61 -3 -90 -46 -33 -50 -46 -51 -47 -2 -1 55 -13 86 -32 90 -13 3 -17 -4 -17 -32 0 -38 -19 -63 -56 -72 -20 -5 -35 3 -80 46 l-55 52 -65 -4 c-84 -5 -93 -14 -70 -77 13 -38 15 -54 7 -70 -12 -22 -67 -41 -118 -41 -24 0 -38 -8 -55 -30 -12 -17 -41 -39 -64 -51 -37 -17 -43 -25 -49 -60 -13 -76 -104 -146 -154 -119 -27 14 -36 68 -24 143 17 105 -7 138 -87 117 -62 -17 -70 -5 -70 96 0 83 12 114 44 114 21 0 46 35 46 64 0 40 -17 66 -55 82 -47 19 -72 18 -85 -5z"
       id="path4"
       style="fill:#1a1a4f;fill-opacity:1" />
    <path
       d="M5560 12085 c-16 -19 -4 -52 27 -72 25 -16 26 -16 44 6 24 29 24 36 -1 61 -24 24 -53 26 -70 5z"
       id="path6"
       style="fill:#1a1a4f;fill-opacity:1" />
    <path
       d="M2701 11842 c-6 -11 -5 -43 2 -90 10 -63 14 -72 33 -72 35 0 74 37 74 71 0 76 -81 144 -109 91z"
       id="path8"
       style="fill:#1a1a4f;fill-opacity:1" />
    <path
       d="M5705 11770 c-7 -23 1 -40 20 -40 16 0 29 35 20 50 -10 17 -33 11 -40 -10z"
       id="path10"
       style="fill:#1a1a4f;fill-opacity:1" />
    <path
       d="M2513 11574 c-16 -42 50 -101 82 -74 17 14 13 53 -7 77 -15 18 -67 16 -75 -3z"
       id="path12"
       style="fill:#1a1a4f;fill-opacity:1" />
    <path
       d="M133 9564 c-10 -26 10 -69 31 -69 31 0 42 29 23 59 -20 29 -45 34 -54 10z"
       id="path14"
       style="fill:#1a1a4f;fill-opacity:1" />
    <path
       d="M400 7804 c0 -35 45 -84 77 -84 30 0 30 26 0 71 -15 22 -32 35 -50 37 -24 3 -27 0 -27 -24z"
       id="path16"
       style="fill:#1a1a4f;fill-opacity:1" />
    <path
       d="M314 7485 c-7 -18 3 -35 21 -35 21 0 28 19 15 35 -16 19 -29 19 -36 0z"
       id="path18"
       style="fill:#1a1a4f;fill-opacity:1" />
    <path
       d="M800 7016 c-54 -12 -55 -12 -63 -57 -10 -58 -3 -116 18 -139 25 -27 145 -81 166 -75 9 3 34 24 53 46 35 38 36 41 30 97 -9 97 -12 102 -57 122 -47 22 -67 22 -147 6z"
       id="path20"
       style="fill:#1a1a4f;fill-opacity:1" />
    <path
       d="M11775 5688 c-11 -6 -23 -16 -27 -22 -11 -17 11 -46 35 -46 27 0 82 53 73 69 -9 14 -55 14 -81 -1z"
       id="path22"
       style="fill:#1a1a4f;fill-opacity:1" />
    <path
       d="M12663 5071 c-47 -22 -59 -40 -69 -100 -6 -37 -3 -45 21 -71 36 -37 119 -67 140 -50 23 19 48 108 42 148 -7 38 -51 92 -76 92 -9 0 -35 -9 -58 -19z"
       id="path24"
       style="fill:#1a1a4f;fill-opacity:1" />
    <path
       d="M8194 2895 c-33 -50 20 -95 75 -64 32 18 38 45 15 70 -25 27 -70 25 -90 -6z"
       id="path26"
       style="fill:#1a1a4f;fill-opacity:1" />
    <path
       d="M8195 2628 c-11 -6 -31 -21 -45 -34 -15 -13 -48 -27 -84 -33 -32 -6 -64 -16 -71 -21 -7 -6 -21 -44 -30 -85 l-16 -74 26 -46 c33 -55 48 -56 139 -15 70 31 91 55 123 140 10 25 28 60 40 79 25 37 29 71 11 89 -15 15 -66 15 -93 0z"
       id="path28"
       style="fill:#1a1a4f;fill-opacity:1" />
    <path
       d="M1911 2585 c-17 -20 -31 -42 -31 -49 0 -17 43 -56 62 -56 24 0 52 38 52 73 0 76 -33 88 -83 32z"
       id="path30"
       style="fill:#1a1a4f;fill-opacity:1" />
    <path
       d="M448 2587 c-21 -12 -40 -29 -44 -37 -30 -72 -21 -104 33 -119 52 -15 68 -14 91 7 14 12 23 35 27 73 6 50 4 60 -14 78 -26 26 -46 26 -93 -2z"
       id="path32"
       style="fill:#1a1a4f;fill-opacity:1" />
    <path
       d="M5343 2475 c-65 -32 -72 -43 -42 -68 48 -39 159 -6 159 48 0 50 -40 57 -117 20z"
       id="path34"
       style="fill:#1a1a4f;fill-opacity:1" />
    <path
       d="M8905 2337 c-63 -25 -95 -48 -95 -68 0 -28 56 -135 75 -143 8 -3 25 -21 36 -41 12 -19 25 -35 30 -35 13 0 102 97 111 120 11 30 -10 85 -50 128 -43 47 -65 55 -107 39z"
       id="path36"
       style="fill:#1a1a4f;fill-opacity:1" />
    <path
       d="M5018 2213 c-25 -29 -58 -96 -58 -119 0 -12 7 -27 16 -35 8 -7 22 -25 30 -41 8 -15 21 -28 29 -28 24 0 118 83 128 113 25 76 -95 167 -145 110z"
       id="path38"
       style="fill:#1a1a4f;fill-opacity:1" />
    <path
       d="M1965 2107 c-46 -26 -54 -51 -31 -95 39 -76 156 -55 156 27 0 20 -60 91 -76 91 -5 0 -27 -11 -49 -23z"
       id="path40"
       style="fill:#1a1a4f;fill-opacity:1" />
    <path
       d="M7213 2105 c-17 -7 -34 -22 -38 -33 -3 -12 -42 -60 -85 -109 -44 -48 -80 -91 -80 -95 0 -3 -16 -16 -36 -29 -40 -24 -64 -70 -64 -121 0 -18 -7 -42 -15 -52 -19 -25 -19 -79 0 -144 17 -58 29 -66 98 -76 47 -7 49 -9 73 -61 21 -49 27 -54 61 -60 21 -3 52 -10 68 -16 63 -23 126 -29 160 -15 18 8 36 19 40 26 18 29 57 31 108 5 27 -15 55 -24 63 -21 7 3 25 24 39 46 16 25 40 47 61 56 19 8 34 18 34 23 0 4 -13 38 -30 74 -35 78 -36 95 -10 146 10 21 23 65 29 97 5 33 12 70 15 84 8 33 3 39 -84 95 -41 26 -99 75 -129 107 -29 32 -66 65 -82 73 -36 19 -153 19 -196 0z"
       id="path42"
       style="fill:#1a1a4f;fill-opacity:1" />
    <path
       d="M5917 1807 c-27 -7 -60 -22 -74 -35 -28 -25 -28 -42 -1 -137 14 -48 16 -51 69 -69 65 -23 96 -18 138 24 51 51 52 159 2 204 -25 22 -75 27 -134 13z"
       id="path44"
       style="fill:#1a1a4f;fill-opacity:1" />
    <path
       d="M7913 1570 c-39 -23 -53 -48 -53 -92 0 -45 15 -58 66 -58 75 0 128 64 99 120 -27 52 -62 61 -112 30z"
       id="path46"
       style="fill:#1a1a4f;fill-opacity:1" />
    <path
       d="M8506 1454 c-29 -28 -29 -60 -2 -107 48 -81 91 -103 130 -64 25 25 42 93 31 127 -8 25 -74 60 -114 60 -16 0 -37 -7 -45 -16z"
       id="path48"
       style="fill:#1a1a4f;fill-opacity:1" />
    <path
       d="M4794 1335 c-10 -8 -34 -15 -53 -15 -28 0 -44 -10 -86 -52 -44 -45 -55 -62 -66 -112 -11 -52 -11 -64 5 -110 32 -92 37 -96 116 -96 l69 0 67 64 c60 58 66 67 62 96 -3 18 1 55 9 81 19 64 5 110 -41 139 -40 24 -56 25 -82 5z"
       id="path50"
       style="fill:#1a1a4f;fill-opacity:1" />
    <path
       d="M10440 1101 c-21 -41 -4 -101 29 -101 28 0 71 39 71 64 0 49 -78 77 -100 37z"
       id="path52"
       style="fill:#1a1a4f;fill-opacity:1" />
    <path
       d="M6256 821 c-23 -26 -37 -90 -27 -127 7 -27 11 -29 75 -37 87 -11 96 -7 96 40 0 72 -18 113 -55 129 -46 19 -69 18 -89 -5z"
       id="path54"
       style="fill:#1a1a4f;fill-opacity:1" />
    <path
       d="M6123 452 c-7 -4 -16 -28 -22 -52 -5 -25 -19 -52 -30 -60 -11 -8 -32 -23 -47 -34 -24 -17 -26 -23 -19 -60 4 -22 10 -66 14 -96 13 -112 95 -182 157 -135 10 8 36 19 56 25 29 8 43 20 58 50 11 22 20 47 20 56 0 9 14 57 31 106 29 86 30 91 13 109 -12 13 -30 19 -60 19 -36 0 -51 7 -89 40 -47 40 -60 46 -82 32z"
       id="path56"
       style="fill:#1a1a4f;fill-opacity:1" />
  </g>
</svg>
