<?xml version="1.0" encoding="UTF-8" standalone="no"?>
<svg
   id="Layer_1"
   data-name="Layer 1"
   viewBox="0 0 511.99999 512"
   version="1.1"
   width="512"
   height="512"
   xmlns="http://www.w3.org/2000/svg"
   xmlns:svg="http://www.w3.org/2000/svg">
  <defs
     id="defs150">
    <style
       id="style148">.cls-1{fill:#e67023;}.cls-2,.cls-6,.cls-7{fill:#231f20;}.cls-3{fill:#9a100c;}.cls-10,.cls-4,.cls-5{fill:none;}.cls-10,.cls-4,.cls-5,.cls-6,.cls-7{stroke:#231f20;stroke-miterlimit:10;}.cls-5,.cls-7{stroke-width:3px;}.cls-10,.cls-6{stroke-width:2px;}.cls-8{fill:#10a3c8;}.cls-9{isolation:isolate;}</style>
  </defs>
  <g
     id="layer2"
     transform="translate(-522.00001)">
    <g
       id="g8103">
      <circle
         style="fill:none;stroke:#231f20;stroke-width:16;stroke-dasharray:none;stroke-opacity:1;paint-order:stroke markers fill"
         id="circle4120"
         cx="778"
         cy="256"
         r="219.62068" />
      <g
         id="g4162"
         transform="matrix(0.89872531,0,0,0.89782927,548.35774,39.287157)"
         style="display:inline;stroke-width:1.11324">
        <polygon
           class="cls-1"
           points="128.6,45.97 146.29,69.49 128.66,94.11 118.28,94.11 118.28,45.97 "
           id="polygon4122"
           style="fill:#e67023;stroke-width:1.27683"
           transform="matrix(0.87188055,0,0,0.87188055,32.737083,185.38639)" />
        <polygon
           class="cls-2"
           points="292.16,97.39 291.83,103.45 278.02,109.62 277.26,103.59 "
           id="polygon4124"
           style="fill:#008000;stroke-width:1.27683"
           transform="matrix(0.87188055,0,0,0.87188055,32.737083,185.38639)" />
        <polygon
           class="cls-3"
           points="157.29,97.2 157.29,105.08 181.5,118.77 181.5,111.92 "
           id="polygon4126"
           style="fill:#9a100c;stroke-width:1.27683"
           transform="matrix(0.87188055,0,0,0.87188055,32.737083,185.38639)" />
        <path
           class="cls-4"
           d="M 271.86776,200.99305"
           id="path4128"
           style="fill:none;stroke:#231f20;stroke-width:1.11324;stroke-miterlimit:10" />
        <rect
           class="cls-2"
           x="271.78928"
           y="197.47937"
           width="16.469824"
           height="3.5049598"
           id="rect4130"
           style="fill:#231f20;stroke-width:1.11324" />
        <polyline
           class="cls-5"
           points="42.78 84.64 1.5 84.52 1.5 112.08 86.26 112.08 100.46 112.08 152.4 112.41 152.4 126.93 184.24 126.93 197.96 126.93 197.96 94.75 241.07 94.75 261.16 94.75 261.16 66.49 261.16 58.07"
           id="polyline4132"
           transform="matrix(0.87188055,0,0,0.87188055,32.737083,185.38639)"
           style="fill:none;stroke:#231f20;stroke-width:3.33973px;stroke-miterlimit:10" />
        <polyline
           class="cls-6"
           points="261.88 58.84 256.67 54.85 256.33 52.83 250.55 48.4 248.1 51.6 253.82 55.98 255.41 56.26 260.82 60.22"
           id="polyline4134"
           transform="matrix(0.87188055,0,0,0.87188055,32.737083,185.38639)"
           style="fill:#231f20;stroke:#231f20;stroke-width:2.22648px;stroke-miterlimit:10" />
        <polygon
           class="cls-2"
           points="300.53,18.99 300.53,49.99 296.83,49.99 296.83,24.7 293.17,24.66 293.13,18.99 "
           id="polygon4136"
           style="fill:#231f20;stroke-width:1.27683"
           transform="matrix(0.87188055,0,0,0.87188055,32.737083,185.38639)" />
        <polyline
           class="cls-2"
           points="276.53 13.27 276.53 8.83 290.78 8.83 290.78 13.27"
           id="polyline4138"
           style="fill:#231f20;stroke-width:1.27683"
           transform="matrix(0.87188055,0,0,0.87188055,32.737083,185.38639)" />
        <polygon
           class="cls-7"
           points="33.75,81.22 46.42,80.99 57.52,89.14 24.98,89.14 29.11,85.63 "
           id="polygon4140"
           transform="matrix(0.87188055,0,0,0.87188055,32.737083,185.38639)"
           style="fill:#231f20;stroke:none;stroke-width:3.33973px;stroke-miterlimit:10" />
        <path
           class="cls-2"
           d="M 276.45385,288.93964"
           id="path4142"
           style="fill:#231f20;stroke-width:1.11324" />
        <polyline
           class="cls-3"
           points="235.66 13.87 244.07 13.87 262.29 38.62 241.07 67.32 235.66 67.52"
           id="polyline4144"
           style="fill:#9a100c;stroke-width:1.27683"
           transform="matrix(0.87188055,0,0,0.87188055,32.737083,185.38639)" />
        <polyline
           class="cls-1"
           points="147.28 13.87 129.33 31.82 124.25 31.82 141.97 13.87"
           id="polyline4146"
           style="fill:#e67023;stroke-width:1.27683"
           transform="matrix(0.87188055,0,0,0.87188055,32.737083,185.38639)" />
        <path
           class="cls-2"
           d="m 157.65141,245.99953 -15.89438,21.44826 H 60.672136 L 76.19161,251.75394 h 53.18471 l 4.97844,-5.78057 -5.09178,-6.27754 H 76.060828 L 60.637261,218.97123 76.566518,197.4445 h 81.084892 l -15.69385,15.69385 H 88.88619 l -5.100501,5.9811 5.100501,6.37345 h 53.35909 z"
           id="path4148"
           style="fill:#231f20;stroke-width:1.11324" />
        <path
           class="cls-2"
           d="m 258.78955,219.06714 -18.48386,25.02297 H 190.9834 v 35.4681 l -21.12566,-12.12786 v -69.95098 h 73.06359 z m -21.66623,1.36885 -5.519,-7.29764 H 190.9834 v 15.05738 h 40.54245 z"
           id="path4150"
           style="fill:#231f20;stroke-width:1.11324" />
        <path
           class="cls-2"
           d="m 271.69339,201.95212 c 0.0872,24.63934 0,48.3545 0.0523,72.99384 0.98522,-0.40106 9.34656,-4.04553 14.01984,-5.92879 l 2.61564,-1.04625 v -66.0188 z"
           id="path4152"
           style="fill:#231f20;stroke-width:1.11324" />
        <path
           class="cls-2"
           d="m 386.15386,251.78881 -15.69385,15.69385 h -65.39104 v -69.88994 l 21.10823,-12.20633 v 66.3937 z"
           id="path4154"
           style="fill:#231f20;stroke-width:1.11324" />
        <path
           class="cls-2"
           d="m 473.03676,251.78881 -15.69385,15.69385 h -65.39104 v -69.88994 l 21.11695,-12.20633 v 66.3937 z"
           id="path4156"
           style="fill:#231f20;stroke-width:1.11324" />
        <polyline
           class="cls-8"
           points="511.04 76.16 493.08 94.11 485.78 94.11 504.41 76.16"
           id="polyline4158"
           style="fill:#10a3c8;stroke-width:1.27683"
           transform="matrix(0.87188055,0,0,0.87188055,32.737083,185.38639)" />
        <polyline
           class="cls-8"
           points="411.47 76.16 393.52 94.11 386.22 94.11 404.84 76.16"
           id="polyline4160"
           style="fill:#10a3c8;stroke-width:1.27683"
           transform="matrix(0.87188055,0,0,0.87188055,32.737083,185.38639)" />
      </g>
      <path
         id="path4164"
         style="fill:none;stroke:#231f20;stroke-width:16;stroke-dasharray:none;stroke-opacity:1;paint-order:stroke markers fill"
         d="m 575.72072,171.48045 a 219.62068,219.62068 0 0 0 -17.17187,82.15039 c 0.014,0.78757 -0.0264,1.58083 0,2.36719 0.002,1.25004 0.0773,2.54101 0.10156,3.80468 a 219.62068,219.62068 0 0 0 1.76953,24.71875 c 0.16122,1.33565 0.29168,2.67307 0.47266,4.00586 a 219.62068,219.62068 0 0 0 14.82812,51.98828 c 5.39588,-1.00564 85.79579,-15.66406 202.53321,-15.66406 115.77216,0 195.44777,14.36007 202.05468,15.58399 a 219.62068,219.62068 0 0 0 17.14258,-82.0625 c -0.0147,-0.79042 0.0226,-1.58554 -0.004,-2.375 0.01,-9.22464 -0.63818,-18.82305 -1.73047,-28.38086 a 219.62068,219.62068 0 0 0 -15.01758,-56.1211 c -5.62069,1.04639 -85.88549,15.64844 -202.44531,15.64844 -116.73742,0 -197.13733,-14.65842 -202.53321,-15.66406 z" />
      <path
         id="path4166"
         style="fill:none;stroke:#231f20;stroke-width:12;stroke-dasharray:none;stroke-opacity:1;paint-order:stroke markers fill"
         d="m 778,324.85337 2e-5,150.76729" />
      <path
         id="path4168"
         style="fill:none;stroke:#231f20;stroke-width:12;stroke-dasharray:none;stroke-opacity:1;paint-order:stroke markers fill"
         d="M 778.00002,36.379297 V 187.14268" />
      <path
         id="path4174"
         style="fill:none;stroke:#231f20;stroke-width:12;stroke-dasharray:none;stroke-opacity:1;paint-order:stroke markers fill"
         d="m 674.26781,328.78443 c 23.68383,114.16847 98.95473,146.83623 98.95473,146.83623" />
      <path
         id="path4176"
         style="fill:none;stroke:#231f20;stroke-width:12;stroke-dasharray:none;stroke-opacity:1;paint-order:stroke markers fill"
         d="m 773.22254,36.379297 c 0,0 -75.27006,32.6674 -98.95433,146.834333" />
      <path
         id="path4182"
         style="fill:none;stroke:#231f20;stroke-width:12;stroke-dasharray:none;stroke-opacity:1;paint-order:stroke markers fill"
         d="m 778.00005,394.23897 c -98.86012,0 -146.81571,25.09622 -146.81571,25.09622" />
      <path
         id="path4186"
         style="fill:none;stroke:#231f20;stroke-width:12;stroke-dasharray:none;stroke-opacity:1;paint-order:stroke markers fill"
         d="m 631.18431,92.664767 c 0,0 47.95559,25.096223 146.81571,25.096223" />
      <path
         style="fill:none;fill-opacity:1;stroke:#231f20;stroke-width:8;stroke-dasharray:none;stroke-opacity:1;paint-order:stroke markers fill"
         d="m 778.00002,117.76099 h 70.36717 V 47.95745"
         id="path27834" />
      <path
         style="fill:none;fill-opacity:1;stroke:#231f20;stroke-width:8;stroke-linecap:square;stroke-dasharray:none;stroke-opacity:1;paint-order:stroke markers fill"
         d="m 848.36719,77.070154 h 40.69084"
         id="path29316" />
      <path
         style="fill:none;fill-opacity:1;stroke:#231f20;stroke-width:8;stroke-linecap:square;stroke-dasharray:none;stroke-opacity:1;paint-order:stroke markers fill"
         d="M 889.05803,66.528741 V 117.76099"
         id="path29318" />
      <path
         style="fill:none;fill-opacity:1;stroke:#231f20;stroke-width:8;stroke-linecap:square;stroke-dasharray:none;stroke-opacity:1;paint-order:stroke markers fill"
         d="m 924.24162,92.15058 v 25.61041"
         id="path30048" />
      <path
         style="fill:none;fill-opacity:1;stroke:#231f20;stroke-width:8;stroke-linecap:square;stroke-dasharray:none;stroke-opacity:1;paint-order:stroke markers fill"
         d="m 848.36719,117.76099 h 40.69084"
         id="path30050" />
      <path
         style="fill:none;fill-opacity:1;stroke:#231f20;stroke-width:8;stroke-linecap:square;stroke-dasharray:none;stroke-opacity:1;paint-order:stroke markers fill"
         d="M 868.71261,77.070155 V 117.76099"
         id="path30052" />
      <path
         style="fill:none;fill-opacity:1;stroke:#231f20;stroke-width:8;stroke-linecap:square;stroke-dasharray:none;stroke-opacity:1;paint-order:stroke markers fill"
         d="m 889.05803,117.76099 v 64.95382"
         id="path30056" />
      <path
         style="fill:none;fill-opacity:1;stroke:#231f20;stroke-width:8;stroke-linecap:square;stroke-dasharray:none;stroke-opacity:1;paint-order:stroke markers fill"
         d="M 959.42522,158.45183 H 889.05803"
         id="path30058" />
      <path
         style="fill:none;fill-opacity:1;stroke:#231f20;stroke-width:8;stroke-linecap:square;stroke-dasharray:none;stroke-opacity:1;paint-order:stroke markers fill"
         d="M 948.65527,117.76099 H 889.05803"
         id="path30060" />
      <path
         style="fill:none;fill-opacity:1;stroke:#231f20;stroke-width:8;stroke-linecap:square;stroke-dasharray:none;stroke-opacity:1;paint-order:stroke markers fill"
         d="M 905.34738,77.070154 H 889.05803"
         id="path30062" />
      <path
         style="fill:none;fill-opacity:1;stroke:#231f20;stroke-width:8;stroke-linecap:square;stroke-dasharray:none;stroke-opacity:1;paint-order:stroke markers fill"
         d="m 959.42522,132.23355 v 26.21828"
         id="path30066" />
      <path
         style="fill:none;fill-opacity:1;stroke:#231f20;stroke-width:8;stroke-linecap:square;stroke-dasharray:none;stroke-opacity:1;paint-order:stroke markers fill"
         d="M 974.76788,158.45183 H 959.42522"
         id="path30068" />
      <path
         style="fill:none;fill-opacity:1;stroke:#231f20;stroke-width:8;stroke-linecap:square;stroke-dasharray:none;stroke-opacity:1;paint-order:stroke markers fill"
         d="m 807.67635,117.76099 v 69.07366"
         id="path30072" />
      <path
         style="fill:none;fill-opacity:1;stroke:#231f20;stroke-width:8;stroke-linecap:square;stroke-dasharray:none;stroke-opacity:1;paint-order:stroke markers fill"
         d="m 778.00002,158.45183 h 29.67633"
         id="path30074" />
      <path
         style="fill:none;fill-opacity:1;stroke:#231f20;stroke-width:8;stroke-linecap:square;stroke-dasharray:none;stroke-opacity:1;paint-order:stroke markers fill"
         d="m 778.00002,139.10641 h 29.67633"
         id="path30076" />
      <path
         style="fill:none;fill-opacity:1;stroke:#231f20;stroke-width:8;stroke-linecap:square;stroke-dasharray:none;stroke-opacity:1;paint-order:stroke markers fill"
         d="m 818.69086,394.23897 v -68.8036"
         id="path30084" />
      <path
         style="fill:none;fill-opacity:1;stroke:#231f20;stroke-width:8;stroke-linecap:square;stroke-dasharray:none;stroke-opacity:1;paint-order:stroke markers fill"
         d="M 818.69086,394.23897 H 778.00005"
         id="path30086" />
      <path
         style="fill:none;fill-opacity:1;stroke:#231f20;stroke-width:8;stroke-linecap:square;stroke-dasharray:none;stroke-opacity:1;paint-order:stroke markers fill"
         d="M 859.38167,394.23897 H 818.69086"
         id="path30088" />
      <path
         style="fill:none;fill-opacity:1;stroke:#231f20;stroke-width:8;stroke-linecap:square;stroke-dasharray:none;stroke-opacity:1;paint-order:stroke markers fill"
         d="M 859.38167,459.98595 V 394.23897"
         id="path30090" />
      <path
         style="fill:none;fill-opacity:1;stroke:#231f20;stroke-width:8;stroke-linecap:square;stroke-dasharray:none;stroke-opacity:1;paint-order:stroke markers fill"
         d="m 859.38167,394.23897 10e-6,-67.02942"
         id="path30092" />
      <path
         style="fill:none;fill-opacity:1;stroke:#231f20;stroke-width:8;stroke-linecap:square;stroke-dasharray:none;stroke-opacity:1;paint-order:stroke markers fill"
         d="m 839.03626,353.54813 v 40.69084"
         id="path30094" />
      <path
         style="fill:none;fill-opacity:1;stroke:#231f20;stroke-width:8;stroke-linecap:square;stroke-dasharray:none;stroke-opacity:1;paint-order:stroke markers fill"
         d="M 859.38167,353.54813 H 818.69086"
         id="path30096" />
      <path
         style="fill:none;fill-opacity:1;stroke:#231f20;stroke-width:8;stroke-linecap:square;stroke-dasharray:none;stroke-opacity:1;paint-order:stroke markers fill"
         d="m 929.74887,353.54813 h -70.3672"
         id="path30100" />
      <path
         style="fill:none;fill-opacity:1;stroke:#231f20;stroke-width:8;stroke-linecap:square;stroke-dasharray:none;stroke-opacity:1;paint-order:stroke markers fill"
         d="m 929.74887,394.23897 h -70.3672"
         id="path30102" />
      <path
         style="fill:none;fill-opacity:1;stroke:#231f20;stroke-width:8;stroke-linecap:square;stroke-dasharray:none;stroke-opacity:1;paint-order:stroke markers fill"
         d="m 929.74887,353.54813 v 40.69084"
         id="path30104" />
      <path
         style="fill:none;fill-opacity:1;stroke:#231f20;stroke-width:8;stroke-linecap:square;stroke-dasharray:none;stroke-opacity:1;paint-order:stroke markers fill"
         d="m 894.56527,442.13377 v -47.8948"
         id="path30106" />
      <path
         style="fill:none;fill-opacity:1;stroke:#231f20;stroke-width:8;stroke-linecap:square;stroke-dasharray:none;stroke-opacity:1;paint-order:stroke markers fill"
         d="m 929.74887,394.23897 v 20.52351"
         id="path30108" />
      <path
         style="fill:none;fill-opacity:1;stroke:#231f20;stroke-width:8;stroke-linecap:square;stroke-dasharray:none;stroke-opacity:1;paint-order:stroke markers fill"
         d="m 894.56527,434.92981 h -35.1836"
         id="path30110" />
      <path
         style="fill:none;fill-opacity:1;stroke:#231f20;stroke-width:8;stroke-linecap:square;stroke-dasharray:none;stroke-opacity:1;paint-order:stroke markers fill"
         d="m 894.56527,414.58439 h -35.1836"
         id="path30112" />
      <path
         style="fill:none;fill-opacity:1;stroke:#231f20;stroke-width:8;stroke-linecap:square;stroke-dasharray:none;stroke-opacity:1;paint-order:stroke markers fill"
         d="M 948.6553,394.23897 H 929.74887"
         id="path30114" />
      <path
         style="fill:none;fill-opacity:1;stroke:#231f20;stroke-width:8;stroke-linecap:square;stroke-dasharray:none;stroke-opacity:1;paint-order:stroke markers fill"
         d="m 929.74887,333.2373 v 20.31083"
         id="path30116" />
      <path
         style="fill:none;fill-opacity:1;stroke:#231f20;stroke-width:8;stroke-linecap:square;stroke-dasharray:none;stroke-opacity:1;paint-order:stroke markers fill"
         d="m 894.56527,329.73216 v 23.81597"
         id="path30118" />
      <path
         id="path30191"
         style="fill:#231f20;fill-opacity:1;stroke:none;stroke-width:8;stroke-linecap:square;stroke-dasharray:none;stroke-opacity:1;paint-order:stroke markers fill"
         d="m 782.25,44.525391 c 0,23.658203 0,47.316406 0,70.974609 21.33333,0 42.66667,0 64,0 0,-20.598958 0,-41.197917 0,-61.796875 -17.20782,-5.044005 -34.76777,-9.464261 -52.74458,-10.418478 -2.75268,-0.183068 -5.44726,-0.237766 -8.20576,-0.620673 -1.01655,-0.157541 -2.03311,-0.315046 -3.04966,-0.472568 0,0.777995 0,1.55599 0,2.333985 z" />
      <path
         id="path30193"
         style="fill:#231f20;fill-opacity:1;stroke:none;stroke-width:8;stroke-linecap:square;stroke-dasharray:none;stroke-opacity:1;paint-order:stroke markers fill"
         d="m 891.25,122 c 0,11.33333 0,22.66667 0,34 22,0 44,0 66,0 0,-5.24479 0,-10.48958 0,-15.73438 -4.1848,-6.16388 -8.50864,-12.23495 -13.11579,-18.09187 -0.54997,-0.71285 -1.09997,-1.42567 -1.64983,-2.13859 -17.07813,-0.0111 -34.15626,-0.024 -51.23438,-0.0371 0,0.66731 0,1.33463 0,2.00195 z" />
      <path
         id="path30195"
         style="fill:#231f20;fill-opacity:1;stroke:none;stroke-width:8;stroke-linecap:square;stroke-dasharray:none;stroke-opacity:1;paint-order:stroke markers fill"
         d="m 782.25,162.5 c 0,6.16732 0,12.33464 0,18.50195 7.0985,-0.0299 14.2218,0.16016 21.28706,-0.66558 0.5314,-0.12291 1.35004,0.0158 1.71294,-0.26059 0,-6.52526 0,-13.05052 0,-19.57578 -7.66667,0 -15.33333,0 -23,0 0,0.66667 0,1.33333 0,2 z" />
      <path
         id="path30197"
         style="fill:#231f20;fill-opacity:1;stroke:none;stroke-width:8;stroke-linecap:square;stroke-dasharray:none;stroke-opacity:1;paint-order:stroke markers fill"
         d="m 782.25,333 c 0,19.66667 0,39.33333 0,59 11.33333,0 22.66667,0 34,0 0,-20.0944 0,-40.1888 0,-60.2832 -11.33176,-0.29384 -22.66225,-0.78343 -34,-0.7168 0,0.66667 0,1.33333 0,2 z" />
      <path
         id="path30199"
         style="fill:#231f20;fill-opacity:1;stroke:none;stroke-width:8;stroke-linecap:square;stroke-dasharray:none;stroke-opacity:1;paint-order:stroke markers fill"
         d="m 861.75,419 c 0,4.5 0,9 0,13.5 10.16667,0 20.33333,0 30.5,0 0,-5.16667 0,-10.33333 0,-15.5 -10.16667,0 -20.33333,0 -30.5,0 0,0.66667 0,1.33333 0,2 z" />
      <path
         id="path30201"
         style="fill:#231f20;fill-opacity:1;stroke:none;stroke-width:8;stroke-linecap:square;stroke-dasharray:none;stroke-opacity:1;paint-order:stroke markers fill"
         d="m 931.96484,341.69141 c -0.18531,3.00848 -0.11606,6.03269 -0.16734,9.04763 -0.0799,13.75675 -0.0359,27.51382 -0.0475,41.27073 3.57877,-0.0172 7.15755,-0.0335 10.73633,-0.0488 4.58363,-5.88552 9.13366,-11.80737 13.21557,-18.0571 4.92906,-7.47643 9.46174,-15.22665 13.402,-23.27103 0.57385,-1.37547 1.51538,-2.87135 1.0625,-4.40239 -0.16149,-0.60055 -0.58443,-0.97961 -1.11736,-1.26665 -2.00416,-0.52062 -4.11481,-0.686 -6.16427,-1.03994 -9.45287,-1.34989 -18.90274,-2.73656 -28.38286,-3.88245 -0.74932,-0.0647 -1.49867,-0.12914 -2.248,-0.19372 -0.0964,0.61458 -0.19271,1.22916 -0.28907,1.84375 z" />
    </g>
  </g>
</svg>
