<?xml version="1.0" encoding="UTF-8" standalone="no"?>
<!-- Created with Inkscape (http://www.inkscape.org/) -->

<svg
   width="2655.4221"
   height="313.12579"
   viewBox="0 0 702.58044 82.847866"
   version="1.1"
   id="svg5"
   xmlns="http://www.w3.org/2000/svg"
   xmlns:svg="http://www.w3.org/2000/svg">
  <defs
     id="defs2" />
  <g
     id="layer1"
     transform="translate(0,-202.90214)">
    <path
       style="fill:#2674fa;fill-opacity:1;stroke-width:2.48925"
       d="m 0,250.73595 c 0,0 216.95129,-26.20093 289.03954,-27.73479 72.08827,-1.53386 191.81195,23.48084 255.10023,25.60546 63.28828,2.12462 158.44067,-18.4081 158.44067,-18.4081 l -2e-5,55.55148 H 0 Z"
       id="path236" />
    <path
       style="fill:#498afb;fill-opacity:1;stroke-width:2.48925"
       d="m 0,236.36981 c 0,0 72.533937,-27.2161 146.68674,-17.70247 74.1528,9.51362 331.47587,30.13656 397.45303,29.93928 65.97715,-0.19729 158.44067,-9.76831 158.44067,-9.76831 l -2e-5,46.91169 H 0 Z"
       id="path442" />
    <path
       style="fill:#6ca0fc;fill-opacity:1;stroke-width:2.48925"
       d="m 0,215.72191 c 0,0 99.255074,4.70772 179.83961,19.86968 80.58453,15.16196 257.82438,-0.25402 323.80154,-0.4513 65.97716,-0.19729 198.93929,13.9691 198.93929,13.9691 l -2e-5,36.64061 H 0 Z"
       id="path1724" />
  </g>
</svg>
