<?xml version="1.0" encoding="UTF-8" standalone="no"?>
<svg
   xmlns:dc="http://purl.org/dc/elements/1.1/"
   xmlns:cc="http://creativecommons.org/ns#"
   xmlns:rdf="http://www.w3.org/1999/02/22-rdf-syntax-ns#"
   xmlns:svg="http://www.w3.org/2000/svg"
   xmlns="http://www.w3.org/2000/svg"
   xmlns:sodipodi="http://sodipodi.sourceforge.net/DTD/sodipodi-0.dtd"
   xmlns:inkscape="http://www.inkscape.org/namespaces/inkscape"
   version="1.1"
   x="0px"
   y="0px"
   width="1545"
   height="497"
   viewBox="0 0 1545 497"
   enable-background="new 0 0 1545 1177"
   xml:space="preserve"
   id="svg227"
   sodipodi:docname="bg-parl-2-r-1-06.svg"
   inkscape:version="1.0.2-2 (e86c870879, 2021-01-15)"><metadata
   id="metadata233"><rdf:RDF><cc:Work
       rdf:about=""><dc:format>image/svg+xml</dc:format><dc:type
         rdf:resource="http://purl.org/dc/dcmitype/StillImage" /></cc:Work></rdf:RDF></metadata><defs
   id="defs231" /><sodipodi:namedview
   pagecolor="#ffffff"
   bordercolor="#666666"
   borderopacity="1"
   objecttolerance="10"
   gridtolerance="10"
   guidetolerance="10"
   inkscape:pageopacity="0"
   inkscape:pageshadow="2"
   inkscape:window-width="1304"
   inkscape:window-height="745"
   id="namedview229"
   showgrid="false"
   inkscape:zoom="0.41971113"
   inkscape:cx="772.5"
   inkscape:cy="99.107287"
   inkscape:window-x="-8"
   inkscape:window-y="-8"
   inkscape:window-maximized="1"
   inkscape:current-layer="svg227" />
<g
   id="Layer_1"
   transform="translate(0,-680)">
</g>
<g
   id="Layer_2"
   transform="translate(0,-680)">
</g>
<g
   id="Layer_3"
   transform="translate(0,-680)">
</g>
<g
   id="Layer_4"
   display="none"
   transform="translate(0,-680)">
</g>
<g
   id="Layer_5"
   transform="matrix(1,0,0,-1,0,1177)">
	<g
   display="none"
   id="g124">
		<rect
   x="52"
   y="620"
   display="inline"
   fill="#222260"
   width="118"
   height="557"
   id="rect6" />
		<rect
   x="105"
   y="471"
   display="inline"
   fill="#222260"
   width="12"
   height="8"
   id="rect8" />
		<rect
   x="110"
   y="423"
   display="inline"
   fill="#222260"
   width="2"
   height="51"
   id="rect10" />
		<rect
   x="1252"
   y="599"
   display="inline"
   fill="#222260"
   width="12"
   height="8"
   id="rect12" />
		<rect
   x="1257"
   y="585"
   display="inline"
   fill="#222260"
   width="2"
   height="17"
   id="rect14" />
		<rect
   x="1088"
   y="509"
   display="inline"
   fill="#222260"
   width="12"
   height="8"
   id="rect16" />
		<rect
   x="1093"
   y="495"
   display="inline"
   fill="#222260"
   width="2"
   height="17"
   id="rect18" />
		<rect
   x="61"
   y="612"
   display="inline"
   fill="#222260"
   width="100"
   height="15"
   id="rect20" />
		<polygon
   display="inline"
   fill="#222260"
   points="156.797,540 157.971,545 64.029,545 65.203,540 "
   id="polygon22" />
		<polygon
   display="inline"
   fill="#222260"
   points="149,616 155,543 67,543 73,616 "
   id="polygon24" />
		<polygon
   display="inline"
   fill="#222260"
   points="128.667,476 142,541 80,541 93.333,476 "
   id="polygon26" />
		<polygon
   display="inline"
   fill="#222260"
   points="315,579 315,1177 224,1177 236,648.5 "
   id="polygon28" />
		<rect
   x="380"
   y="655"
   display="inline"
   fill="#222260"
   width="91"
   height="522"
   id="rect30" />
		<rect
   x="388"
   y="647"
   display="inline"
   fill="#222260"
   width="75"
   height="11"
   id="rect32" />
		<rect
   x="395"
   y="591"
   display="inline"
   fill="#222260"
   width="61"
   height="59"
   id="rect34" />
		<rect
   x="405"
   y="584"
   display="inline"
   fill="#222260"
   width="41"
   height="11"
   id="rect36" />
		<polyline
   display="inline"
   fill="#222260"
   points="606,495 656,495 651,633 656,1177 545,1177 554,640.5   "
   id="polyline38" />
		<path
   display="inline"
   fill="#222260"
   d="m 794,1177 h -69 c 0,0 12.509,-281.16 12.424,-375 -0.041,-45.548 -3.358,-182 -3.358,-182 h 50.868 c 0,0 -3.317,136.451 -3.358,182 -0.085,93.84 12.424,375 12.424,375 z"
   id="path40" />
		<rect
   x="868"
   y="693"
   display="inline"
   fill="#222260"
   width="122"
   height="484"
   id="rect42" />
		<rect
   x="868"
   y="601"
   display="inline"
   fill="#222260"
   width="61"
   height="95"
   id="rect44" />
		<polygon
   display="inline"
   fill="#222260"
   points="617,567 617,662 565,662 556,567 "
   id="polygon46" />
		<rect
   x="939"
   y="643"
   display="inline"
   fill="#222260"
   width="51"
   height="53"
   id="rect48" />
		<rect
   x="948"
   y="633"
   display="inline"
   fill="#222260"
   width="33"
   height="15"
   id="rect50" />
		<rect
   x="969"
   y="612"
   display="inline"
   fill="#222260"
   width="6"
   height="23"
   id="rect52" />
		<rect
   x="897"
   y="545"
   display="inline"
   fill="#222260"
   width="2"
   height="31"
   id="rect54" />
		<rect
   x="758"
   y="535"
   display="inline"
   fill="#222260"
   width="2"
   height="31"
   id="rect56" />
		<rect
   x="954"
   y="625"
   display="inline"
   fill="#222260"
   width="6"
   height="10"
   id="rect58" />
		<polygon
   display="inline"
   fill="#222260"
   points="917,574 919,608 878,608 880,574 "
   id="polygon60" />
		<polygon
   display="inline"
   fill="#222260"
   points="1129.244,514 1133,608 1056,608 1059.756,514 "
   id="polygon62" />
		<rect
   x="1038"
   y="588"
   display="inline"
   fill="#222260"
   width="112"
   height="589"
   id="rect64" />
		<polygon
   display="inline"
   fill="#222260"
   points="1316,655 1314,1177 1201,1177 1199,655 "
   id="polygon66" />
		<polygon
   display="inline"
   fill="#222260"
   points="1318.213,638 1316.137,657 1198.863,657 1196.787,638 "
   id="polygon68" />
		<polygon
   display="inline"
   fill="#222260"
   points="1470,622 1465,1177 1375,1177 1366,622 "
   id="polygon70" />
		<polygon
   display="inline"
   fill="#222260"
   points="1502.861,571 1498.347,626 1418,626 1418,571 "
   id="polygon72" />
		<polygon
   display="inline"
   fill="#222260"
   points="1483.472,518 1480.577,581 1363.791,581 1361.861,518 "
   id="polygon74" />
		<rect
   x="1358"
   y="514"
   display="inline"
   fill="#222260"
   width="129"
   height="7"
   id="rect76" />
		<rect
   x="1367"
   y="577"
   display="inline"
   fill="#222260"
   width="29"
   height="7"
   id="rect78" />
		<rect
   x="1373"
   y="581"
   display="inline"
   fill="#222260"
   width="17"
   height="7"
   id="rect80" />
		<rect
   x="1377"
   y="586"
   display="inline"
   fill="#222260"
   width="9"
   height="10"
   id="rect82" />
		<rect
   x="1381"
   y="594"
   display="inline"
   fill="#222260"
   width="1"
   height="13"
   id="rect84" />
		<rect
   x="1466"
   y="568"
   display="inline"
   fill="#222260"
   width="39"
   height="6"
   id="rect86" />
		<ellipse
   display="inline"
   fill="#222260"
   cx="1257.5"
   cy="644"
   rx="44.5"
   ry="39.666"
   id="ellipse88" />
		<ellipse
   display="inline"
   fill="#222260"
   cx="1422.609"
   cy="517.672"
   rx="60.838001"
   ry="53.063"
   id="ellipse90" />
		<polygon
   display="inline"
   fill="#222260"
   points="785,621 790,615 729,615 734,621 "
   id="polygon92" />
		<polygon
   display="inline"
   fill="#222260"
   points="786,574 788,580 731,580 733,574 "
   id="polygon94" />
		<polygon
   display="inline"
   fill="#222260"
   points="767.43,564 773.075,576 745.925,576 751.57,564 "
   id="polygon96" />
		<rect
   x="424"
   y="550"
   display="inline"
   fill="#222260"
   width="2"
   height="31"
   id="rect98" />
		<polygon
   display="inline"
   fill="#222260"
   points="433.43,579 439.075,591 411.925,591 417.57,579 "
   id="polygon100" />
		<ellipse
   display="inline"
   fill="#222260"
   cx="759.5"
   cy="598"
   rx="47.167"
   ry="23.333"
   id="ellipse102" />
		<rect
   y="743"
   display="inline"
   fill="#222260"
   width="61"
   height="434"
   id="rect104"
   x="0" />
		<rect
   x="145"
   y="852"
   display="inline"
   fill="#222260"
   width="101"
   height="325"
   id="rect106" />
		<rect
   x="298"
   y="792"
   display="inline"
   fill="#222260"
   width="101"
   height="385"
   id="rect108" />
		<rect
   x="453"
   y="822"
   display="inline"
   fill="#222260"
   width="101"
   height="355"
   id="rect110" />
		<rect
   x="646"
   y="752"
   display="inline"
   fill="#222260"
   width="101"
   height="425"
   id="rect112" />
		<rect
   x="773"
   y="815"
   display="inline"
   fill="#222260"
   width="101"
   height="362"
   id="rect114" />
		<rect
   x="963"
   y="853"
   display="inline"
   fill="#222260"
   width="101"
   height="324"
   id="rect116" />
		<rect
   x="1127"
   y="757"
   display="inline"
   fill="#222260"
   width="101"
   height="420"
   id="rect118" />
		<rect
   x="1299"
   y="798"
   display="inline"
   fill="#222260"
   width="101"
   height="379"
   id="rect120" />
		<rect
   x="1449"
   y="763"
   display="inline"
   fill="#222260"
   width="101"
   height="414"
   id="rect122" />
	</g>
	<g
   id="g222">
		<rect
   y="869"
   fill="#1a1a4f"
   width="92"
   height="308"
   id="rect126"
   x="0" />
		<polygon
   fill="#1a1a4f"
   points="136,892 136,1177 80,1177 80,915 "
   id="polygon128" />
		<rect
   x="208"
   y="932"
   fill="#1a1a4f"
   width="56"
   height="245"
   id="rect130" />
		<rect
   x="385"
   y="960"
   fill="#1a1a4f"
   width="56"
   height="217"
   id="rect132" />
		<rect
   x="514"
   y="885"
   fill="#1a1a4f"
   width="56"
   height="292"
   id="rect134" />
		<rect
   x="646"
   y="919"
   fill="#1a1a4f"
   width="56"
   height="258"
   id="rect136" />
		<polygon
   fill="#1a1a4f"
   points="897,943 897,1177 841,1177 841,921 "
   id="polygon138" />
		<rect
   x="962"
   y="915"
   fill="#1a1a4f"
   width="56"
   height="262"
   id="rect140" />
		<rect
   x="1121"
   y="952"
   fill="#1a1a4f"
   width="56"
   height="225"
   id="rect142" />
		<polygon
   fill="#1a1a4f"
   points="1311,915 1311,1177 1251,1177 1251,894 "
   id="polygon144" />
		<polygon
   fill="#1a1a4f"
   points="1463,943 1463,1177 1403,1177 1403,952 "
   id="polygon146" />
		<polygon
   fill="#1a1a4f"
   points="221,817 221,1177 129,1177 129,743 "
   id="polygon148" />
		<rect
   x="254"
   y="904"
   fill="#1a1a4f"
   width="140"
   height="273"
   id="rect150" />
		<polygon
   fill="#1a1a4f"
   points="377,833 379,919 269,919 271,833 "
   id="polygon152" />
		<rect
   x="330"
   y="813"
   fill="#1a1a4f"
   width="36"
   height="30"
   id="rect154" />
		<rect
   x="1085"
   y="868"
   fill="#1a1a4f"
   width="36"
   height="30"
   id="rect156" />
		<polygon
   fill="#1a1a4f"
   points="948,801 948,831 911,831 911,809.283 "
   id="polygon158" />
		<rect
   x="280"
   y="822"
   fill="#1a1a4f"
   width="36"
   height="17"
   id="rect160" />
		<polygon
   fill="#1a1a4f"
   points="521,772 521,1177 429,1177 429,848 "
   id="polygon162" />
		<polygon
   fill="#1a1a4f"
   points="443,721 443,846 493,846 493,765.578 "
   id="polygon164" />
		<polygon
   fill="#1a1a4f"
   points="697,752 697,877 747,877 747,796.578 "
   id="polygon166" />
		<polygon
   fill="#1a1a4f"
   points="846,707.5 846,958 746,958 746,796.656 "
   id="polygon168" />
		<rect
   x="561"
   y="782"
   fill="#1a1a4f"
   width="91"
   height="395"
   id="rect170" />
		<rect
   x="696"
   y="869"
   fill="#1a1a4f"
   width="150"
   height="308"
   id="rect172" />
		<polygon
   fill="#1a1a4f"
   points="964.586,821 969.763,1177 889,1177 894.177,821 "
   id="polygon174" />
		<rect
   x="1013"
   y="883"
   fill="#1a1a4f"
   width="116"
   height="294"
   id="rect176" />
		<polygon
   fill="#1a1a4f"
   points="1258,708 1258,1177 1168,1177 1185.694,736 "
   id="polygon178" />
		<rect
   x="1304"
   y="865"
   fill="#1a1a4f"
   width="108"
   height="312"
   id="rect180" />
		<rect
   x="1455"
   y="839"
   fill="#1a1a4f"
   width="90"
   height="338"
   id="rect182" />
		<polygon
   fill="#1a1a4f"
   points="1525.5,792 1530.5,853 1469.5,853 1474.5,792 "
   id="polygon184" />
		<rect
   x="20"
   y="840"
   fill="#1a1a4f"
   width="52"
   height="37"
   id="rect186" />
		<rect
   x="576"
   y="757"
   fill="#1a1a4f"
   width="62"
   height="37"
   id="rect188" />
		<rect
   x="590"
   y="726"
   fill="#1a1a4f"
   width="34"
   height="37"
   id="rect190" />
		<rect
   x="605"
   y="699"
   fill="#1a1a4f"
   width="3"
   height="37"
   id="rect192" />
		<polygon
   fill="#1a1a4f"
   points="1258,726 1258,680 1255,682.667 1255,726 "
   id="polygon194" />
		<rect
   x="43"
   y="794"
   fill="#1a1a4f"
   width="6"
   height="54"
   id="rect196" />
		<rect
   x="289"
   y="792"
   fill="#1a1a4f"
   width="6"
   height="36"
   id="rect198" />
		<rect
   x="493"
   y="752"
   fill="#1a1a4f"
   width="10"
   height="47"
   id="rect200" />
		<rect
   x="496"
   y="726"
   fill="#1a1a4f"
   width="4"
   height="28"
   id="rect202" />
		<rect
   x="1498"
   y="746"
   fill="#1a1a4f"
   width="3"
   height="52"
   id="rect204" />
		<rect
   x="1495"
   y="784"
   fill="#1a1a4f"
   width="9"
   height="13"
   id="rect206" />
		<rect
   x="301"
   y="805"
   fill="#1a1a4f"
   width="6"
   height="23"
   id="rect208" />
		<rect
   x="1028"
   y="835"
   fill="#1a1a4f"
   width="36"
   height="17"
   id="rect210" />
		<rect
   x="1037"
   y="805"
   fill="#1a1a4f"
   width="6"
   height="36"
   id="rect212" />
		<rect
   x="1049"
   y="818"
   fill="#1a1a4f"
   width="6"
   height="23"
   id="rect214" />
		<polygon
   fill="#1a1a4f"
   points="1079,894 1075,844 1017,844 1013,894 "
   id="polygon216" />
		<rect
   x="1332"
   y="806"
   fill="#1a1a4f"
   width="35"
   height="64"
   id="rect218" />
		<rect
   x="1364"
   y="845"
   fill="#1a1a4f"
   width="30"
   height="64"
   id="rect220" />
	</g>
	<path
   display="none"
   fill="#101038"
   d="M 1545,1181 H 0 v -69 c 96,-110.5 1451.021,-108.918 1545,-14.5 z"
   id="path224" />
</g>
</svg>
