<?xml version="1.0" encoding="UTF-8" standalone="no"?>
<svg
   xmlns:dc="http://purl.org/dc/elements/1.1/"
   xmlns:cc="http://creativecommons.org/ns#"
   xmlns:rdf="http://www.w3.org/1999/02/22-rdf-syntax-ns#"
   xmlns:svg="http://www.w3.org/2000/svg"
   xmlns="http://www.w3.org/2000/svg"
   xmlns:xlink="http://www.w3.org/1999/xlink"
   xmlns:sodipodi="http://sodipodi.sourceforge.net/DTD/sodipodi-0.dtd"
   xmlns:inkscape="http://www.inkscape.org/namespaces/inkscape"
   version="1.1"
   x="0px"
   y="0px"
   width="1545"
   height="153.17067"
   viewBox="0 0 1545 153.17067"
   enable-background="new 0 0 1280 686"
   xml:space="preserve"
   id="svg99"
   sodipodi:docname="bg-parl-2-1-05.svg"
   inkscape:version="1.0.2-2 (e86c870879, 2021-01-15)"><metadata
   id="metadata105"><rdf:RDF><cc:Work
       rdf:about=""><dc:format>image/svg+xml</dc:format><dc:type
         rdf:resource="http://purl.org/dc/dcmitype/StillImage" /></cc:Work></rdf:RDF></metadata><defs
   id="defs103" /><sodipodi:namedview
   pagecolor="#ffffff"
   bordercolor="#666666"
   borderopacity="1"
   objecttolerance="10"
   gridtolerance="10"
   guidetolerance="10"
   inkscape:pageopacity="0"
   inkscape:pageshadow="2"
   inkscape:window-width="1304"
   inkscape:window-height="745"
   id="namedview101"
   showgrid="false"
   inkscape:zoom="0.36005831"
   inkscape:cx="477.83386"
   inkscape:cy="-225.79042"
   inkscape:window-x="-8"
   inkscape:window-y="-8"
   inkscape:window-maximized="1"
   inkscape:current-layer="svg99" />
<g
   id="Layer_1"
   transform="translate(132.5,-532.82933)">
</g>
<g
   id="Layer_4"
   transform="translate(132.5,-532.82933)">
	<rect
   x="-132.5"
   display="none"
   fill="#5571c9"
   width="1545"
   height="684"
   id="rect3"
   y="0" />
	<g
   display="none"
   id="g15">
		<circle
   display="inline"
   opacity="0.2"
   fill="#cccccc"
   cx="640.5"
   cy="120.407"
   r="87.803001"
   id="circle5" />
		<circle
   display="inline"
   fill="#ffffff"
   cx="640.5"
   cy="120.407"
   r="60.688999"
   id="circle7" />
		<polygon
   display="inline"
   fill="#cccccc"
   points="652.229,127.358 632.196,133.093 636.766,142.665 657.446,148.835 674.609,142.605 684.557,126.989 680.168,106.876 662.157,110.967 "
   id="polygon9" />
		<path
   display="inline"
   fill="#cccccc"
   d="m 632.221,155.535 -10.857,4.757 c 0,0 3.588,6.717 4.758,7.655 1.172,0.938 18.192,3.682 18.192,3.682 l 25.056,-15.283 -18.177,3.497 -18.972,-4.308"
   id="path11" />
		<path
   display="inline"
   fill="#cccccc"
   d="m 625.688,130.155 c -2.164,1.254 -6.234,17.246 -6.234,17.246 0,0 -9.475,5.519 -11.621,4.236 -2.145,-1.283 -13.135,-10.183 -13.553,-14.162 -0.418,-3.979 -2.899,-22.822 -2.559,-24.366 0.34,-1.544 6.102,-13.712 9.582,-14.078 3.48,-0.366 10.047,9.503 10.047,9.503 l 9.959,2.976 6.812,17.886 c -10e-4,0.001 -1.883,0.441 -2.433,0.759 z"
   id="path13" />
	</g>
	<g
   display="none"
   id="g35">
		<path
   display="inline"
   fill="#cccccc"
   d="m 88.661,40.996 c 1.931,-1.93 2.839,-10.545 2.839,-10.545 0,0 0.908,8.615 2.84,10.545 1.93,1.931 10.545,2.839 10.545,2.839 0,0 -8.615,0.908 -10.545,2.839 -1.932,1.931 -2.84,10.545 -2.84,10.545 0,0 -0.908,-8.614 -2.839,-10.545 -1.931,-1.93 -10.545,-2.839 -10.545,-2.839 0,0 8.614,-0.908 10.545,-2.839 z"
   id="path17" />
		<path
   display="inline"
   fill="#cccccc"
   d="m 167.661,117.996 c 1.931,-1.93 2.839,-10.545 2.839,-10.545 0,0 0.908,8.615 2.84,10.545 1.93,1.931 10.545,2.839 10.545,2.839 0,0 -8.615,0.908 -10.545,2.839 -1.932,1.931 -2.84,10.545 -2.84,10.545 0,0 -0.908,-8.614 -2.839,-10.545 -1.931,-1.93 -10.545,-2.839 -10.545,-2.839 0,0 8.614,-0.908 10.545,-2.839 z"
   id="path19" />
		<path
   display="inline"
   fill="#cccccc"
   d="m 280.924,94.258 c 3.111,-3.111 4.576,-16.996 4.576,-16.996 0,0 1.464,13.885 4.576,16.996 3.111,3.112 16.996,4.576 16.996,4.576 0,0 -13.885,1.464 -16.996,4.576 -3.112,3.112 -4.576,16.996 -4.576,16.996 0,0 -1.465,-13.884 -4.576,-16.996 -3.111,-3.111 -16.996,-4.576 -16.996,-4.576 0,0 13.885,-1.464 16.996,-4.576 z"
   id="path21" />
		<path
   display="inline"
   fill="#cccccc"
   d="m 398.904,199.239 c 3.125,-3.125 4.596,-17.069 4.596,-17.069 0,0 1.471,13.944 4.596,17.069 3.125,3.125 17.068,4.596 17.068,4.596 0,0 -13.943,1.47 -17.068,4.595 -3.125,3.125 -4.596,17.068 -4.596,17.068 0,0 -1.471,-13.943 -4.596,-17.068 -3.125,-3.125 -17.068,-4.595 -17.068,-4.595 0,0 13.943,-1.471 17.068,-4.596 z"
   id="path23" />
		<path
   display="inline"
   fill="#cccccc"
   d="m 526.661,67.996 c 1.931,-1.93 2.839,-10.545 2.839,-10.545 0,0 0.908,8.615 2.84,10.545 1.93,1.931 10.545,2.839 10.545,2.839 0,0 -8.615,0.908 -10.545,2.839 -1.932,1.931 -2.84,10.545 -2.84,10.545 0,0 -0.908,-8.614 -2.839,-10.545 -1.931,-1.93 -10.545,-2.839 -10.545,-2.839 0,0 8.614,-0.908 10.545,-2.839 z"
   id="path25" />
		<path
   display="inline"
   fill="#cccccc"
   d="m 732.661,301.996 c 1.931,-1.93 2.839,-10.545 2.839,-10.545 0,0 0.908,8.615 2.84,10.545 1.93,1.931 10.545,2.84 10.545,2.84 0,0 -8.615,0.908 -10.545,2.838 -1.932,1.932 -2.84,10.545 -2.84,10.545 0,0 -0.908,-8.613 -2.839,-10.545 -1.931,-1.93 -10.545,-2.838 -10.545,-2.838 0,0 8.614,-0.909 10.545,-2.84 z"
   id="path27" />
		<path
   display="inline"
   fill="#cccccc"
   d="m 1096.661,164.996 c 1.931,-1.93 2.839,-10.545 2.839,-10.545 0,0 0.908,8.615 2.84,10.545 1.93,1.931 10.545,2.839 10.545,2.839 0,0 -8.615,0.908 -10.545,2.839 -1.932,1.931 -2.84,10.545 -2.84,10.545 0,0 -0.908,-8.614 -2.839,-10.545 -1.931,-1.93 -10.545,-2.839 -10.545,-2.839 0,0 8.614,-0.908 10.545,-2.839 z"
   id="path29" />
		<path
   display="inline"
   fill="#cccccc"
   d="m 1206.661,67.996 c 1.931,-1.93 2.839,-10.545 2.839,-10.545 0,0 0.908,8.615 2.84,10.545 1.93,1.931 10.545,2.839 10.545,2.839 0,0 -8.615,0.908 -10.545,2.839 -1.932,1.931 -2.84,10.545 -2.84,10.545 0,0 -0.908,-8.614 -2.839,-10.545 -1.931,-1.93 -10.545,-2.839 -10.545,-2.839 0,0 8.614,-0.908 10.545,-2.839 z"
   id="path31" />
		<path
   display="inline"
   fill="#cccccc"
   d="m 938.349,121.684 c 2.823,-2.822 4.15,-15.418 4.15,-15.418 0,0 1.328,12.596 4.152,15.418 2.822,2.823 15.418,4.152 15.418,4.152 0,0 -12.596,1.328 -15.417,4.15 -2.824,2.823 -4.152,15.418 -4.152,15.418 0,0 -1.328,-12.595 -4.151,-15.418 -2.822,-2.822 -15.418,-4.151 -15.418,-4.151 0,0 12.595,-1.328 15.418,-4.151 z"
   id="path33" />
	</g>
	
		<radialGradient
   id="SVGID_2_"
   cx="646.00049"
   cy="225.5132"
   r="1398.7372"
   gradientTransform="matrix(0.9995,-0.0322,0.0073,0.2256,-1.3032,195.4352)"
   gradientUnits="userSpaceOnUse">
		<stop
   offset="0.4679"
   style="stop-color:#32327C"
   id="stop37" />
		<stop
   offset="0.6173"
   style="stop-color:#3C3F88"
   id="stop39" />
		<stop
   offset="0.8274"
   style="stop-color:#464E95"
   id="stop41" />
	</radialGradient>
	<path
   display="none"
   fill="url(#SVGID_2_)"
   d="m -8.877,185.998 c 42.578,20.817 160.492,106.029 160.492,106.029 0,0 108.885,-104.527 131.993,-106.329 37.892,4.802 89.909,143.568 140.994,155.852 12.127,2.916 29.555,-27.807 41.998,-26.934 32.07,2.25 34.877,71.002 53.544,92.335 32.838,11.386 118.615,35.178 156.445,41.134 69.612,10.96 185.084,-5.449 239.988,-49.626 24.094,-19.387 90.117,-63.193 115.494,-80.865 14.186,-9.879 54.867,5.457 68.996,-4.502 35.384,-24.941 3.789,-121.763 45.433,-133.592 31.956,-9.077 71.562,75.293 71.562,75.293 0,0 68.26,-117.698 104.995,-142.293 18.581,-12.44 89.443,0 89.443,0 V 686 h -1545 V 190.5 c 0,0 93.848,-12.862 123.623,-4.502 z"
   id="path44"
   style="fill:url(#SVGID_2_)" />
	<g
   display="none"
   id="g68">
		<defs
   id="defs47">
			<path
   id="SVGID_8_"
   d="m -8.877,185.998 c 42.578,20.817 160.492,106.029 160.492,106.029 0,0 108.885,-104.527 131.993,-106.329 37.892,4.802 89.909,143.568 140.994,155.852 12.127,2.916 29.555,-27.807 41.998,-26.934 32.07,2.25 34.877,71.002 53.544,92.335 32.838,11.386 135.114,68.182 172.944,74.138 69.612,10.96 221.151,-12.822 276.056,-56.999 24.094,-19.387 37.551,-88.824 62.928,-106.496 14.186,-9.879 54.867,5.457 68.996,-4.502 35.384,-24.941 3.789,-121.763 45.433,-133.592 31.956,-9.077 71.562,75.293 71.562,75.293 0,0 68.26,-117.698 104.995,-142.293 18.581,-12.44 89.443,0 89.443,0 V 686 h -1545 V 190.5 c -0.001,0 93.847,-12.862 123.622,-4.502 z" />
		</defs>
		<clipPath
   id="SVGID_4_"
   display="inline">
			<use
   xlink:href="#SVGID_8_"
   overflow="visible"
   id="use49"
   x="0"
   y="0"
   width="100%"
   height="100%" />
		</clipPath>
		<g
   display="inline"
   clip-path="url(#SVGID_4_)"
   id="g66">
			<path
   fill="#2b2b6d"
   d="m 1296.834,214.165 c -2,0 -38.31,29.954 -32.667,42 2.666,5.691 42.667,4 42.667,4 z"
   id="path52" />
			<path
   fill="#2b2b6d"
   d="m 1138,176 20.5,53 -0.5,27.5 34.501,25.334 c 0,0 17,-21 25.561,-27.229 14.434,-25.814 16.771,-117.106 16.771,-117.106 z"
   id="path54" />
			<path
   fill="#2b2b6d"
   d="m 1039.501,305.832 c 0,0 24.462,50.668 32.462,50.667 7.405,-0.001 21.538,-20.667 23.037,-31.499 1.285,-3.444 9.5,-12 4.114,-12.771 C 1098.731,312.174 1084.5,270.5 1084.5,270.5 Z"
   id="path56" />
			<path
   fill="#2b2b6d"
   d="m 470.5,291.826 -7,119.34 c 0,0 -37.98,-57.661 -42.167,-74.003 -3.685,-14.386 9.251,-58.663 9.251,-58.663 z"
   id="path58" />
			<path
   fill="#2b2b6d"
   d="m 331.998,341.5 c -1,-4.737 -42.293,-29.293 -47.712,-44.716 -2.944,-8.382 5.978,-31.564 13.714,-32.784 5.834,1.003 12.273,14.066 16.393,18 5.146,3.448 25.346,-3.921 29.107,1 5.537,7.243 -13.642,31.626 -16,40.433 -0.65,2.43 4.498,18.067 4.498,18.067 z"
   id="path60" />
			<path
   fill="#2b2b6d"
   d="m 151.615,292.026 c 0,0 -10.115,34.808 -21.115,37.474 -9.719,2.355 -49.184,-86.805 -49.184,-86.805 l 43.528,-34.195 26.771,83.526"
   id="path62" />
			<path
   fill="#2b2b6d"
   d="m 224.379,336.16 c 0,0 13.357,-126.518 41.121,-155.659 7.235,-7.594 40,-12.667 40,-12.667 l 14,31.333 c 0,0 -1.915,15.9 -15.86,31.02 -11.734,12.722 -35.092,23.341 -42.14,38.836 -15,32.977 33.745,90.702 33.745,90.702 l -41.078,69.443 z"
   id="path64" />
		</g>
	</g>
	
		<radialGradient
   id="SVGID_6_"
   cx="654"
   cy="266.91409"
   r="1348.2649"
   gradientTransform="matrix(1,0,0,0.2365,0,203.8014)"
   gradientUnits="userSpaceOnUse">
		<stop
   offset="0.594"
   style="stop-color:#222260"
   id="stop70" />
		<stop
   offset="0.7043"
   style="stop-color:#272967"
   id="stop72" />
		<stop
   offset="0.8635"
   style="stop-color:#343C79"
   id="stop74" />
		<stop
   offset="1"
   style="stop-color:#44528E"
   id="stop76" />
	</radialGradient>
	<path
   display="none"
   fill="url(#SVGID_6_)"
   d="m -132.5,341.5 c 0,0 150.621,-53.906 153.621,-49.406 3,4.499 97.213,87.309 137.993,86.995 20.408,-0.156 48.649,-42.051 68.997,-43.632 28.084,-2.182 93.78,40.633 103.887,43.632 10.168,8.078 59.38,29.978 90.168,36.078 27.334,12 41.531,27.854 75.932,47.917 35.996,20.993 130.357,0.99 157.402,5.825 79.342,14.184 238.408,3.586 313.644,-25.324 63.699,-24.478 174.826,-119.993 242.918,-124.493 53.777,-3.555 200.438,79.367 200.438,79.367 V 686 h -1545 z"
   id="path79"
   style="fill:url(#SVGID_6_)" />
	
		<radialGradient
   id="SVGID_7_"
   cx="671.99799"
   cy="449.21289"
   r="1354.7998"
   fx="638.15759"
   fy="450.5726"
   gradientTransform="matrix(0.9999,-0.0153,0.0018,0.1169,-0.7261,406.994)"
   gradientUnits="userSpaceOnUse">
		<stop
   offset="0.3004"
   style="stop-color:#1A1A4F"
   id="stop81" />
		<stop
   offset="0.4576"
   style="stop-color:#1E1E54"
   id="stop83" />
		<stop
   offset="0.6531"
   style="stop-color:#2A2B64"
   id="stop85" />
		<stop
   offset="0.8679"
   style="stop-color:#3D3F7D"
   id="stop87" />
		<stop
   offset="1"
   style="stop-color:#4C4E90"
   id="stop89" />
	</radialGradient>
	<path
   display="none"
   fill="url(#SVGID_7_)"
   d="m -19.25,515.5 c 29.576,-4.812 81.595,-33.916 111.125,-39 47.804,-8.229 147.867,47.967 192.063,27.975 17.925,-8.108 16.869,-65.516 36.031,-69.975 28.667,0.667 40.016,45.333 66.016,48.975 37.944,14.785 126.037,3.17 166.71,5.188 89.891,4.461 252.952,25.359 355.302,9.837 12.976,-1.968 25.859,-21.143 38.669,-24 19.764,-4.408 61.768,21.054 79.49,11.26 10.493,-5.799 24.292,-34.238 35.179,-39.26 21.029,-9.699 45.9,30.245 68.666,26 27.146,-5.063 54.166,-72.716 81.75,-74 62.633,-2.916 200.75,150 200.75,150 V 686 h -1545 V 500.5 c -0.001,0 83.083,19.907 113.249,15 z"
   id="path92"
   style="fill:url(#SVGID_7_)" />
	<path
   fill="#101038"
   d="m 1412.5,686 h -1545 v -69 c 96,-110.5 1451.021,-108.918 1545,-14.5 z"
   id="path94" />
</g>
<g
   id="Layer_2"
   display="none"
   transform="translate(132.5,-532.82933)">
</g>
<g
   id="Layer_3"
   transform="translate(132.5,-532.82933)">
</g>
</svg>
