<?xml version="1.0" encoding="UTF-8" standalone="no"?>
<svg
   xmlns:dc="http://purl.org/dc/elements/1.1/"
   xmlns:cc="http://creativecommons.org/ns#"
   xmlns:rdf="http://www.w3.org/1999/02/22-rdf-syntax-ns#"
   xmlns:svg="http://www.w3.org/2000/svg"
   xmlns="http://www.w3.org/2000/svg"
   xmlns:sodipodi="http://sodipodi.sourceforge.net/DTD/sodipodi-0.dtd"
   xmlns:inkscape="http://www.inkscape.org/namespaces/inkscape"
   version="1.1"
   x="0px"
   y="0px"
   width="1362"
   height="1076"
   viewBox="0 0 1362 1076"
   enable-background="new 0 0 1545 1177"
   xml:space="preserve"
   id="svg370"
   sodipodi:docname="bg-parl-2-r-3-06.svg"
   inkscape:version="1.0.2-2 (e86c870879, 2021-01-15)"><metadata
   id="metadata376"><rdf:RDF><cc:Work
       rdf:about=""><dc:format>image/svg+xml</dc:format><dc:type
         rdf:resource="http://purl.org/dc/dcmitype/StillImage" /></cc:Work></rdf:RDF></metadata><defs
   id="defs374" /><sodipodi:namedview
   pagecolor="#ffffff"
   bordercolor="#666666"
   borderopacity="1"
   objecttolerance="10"
   gridtolerance="10"
   guidetolerance="10"
   inkscape:pageopacity="0"
   inkscape:pageshadow="2"
   inkscape:window-width="1304"
   inkscape:window-height="745"
   id="namedview372"
   showgrid="false"
   inkscape:zoom="0.41971113"
   inkscape:cx="711.5"
   inkscape:cy="481.5"
   inkscape:window-x="-8"
   inkscape:window-y="-8"
   inkscape:window-maximized="1"
   inkscape:current-layer="svg370" />
<g
   id="Layer_1"
   transform="translate(-61,-107)">
</g>
<g
   id="Layer_2"
   transform="translate(-61,-107)">
</g>
<g
   id="Layer_3"
   transform="translate(-61,-107)">
</g>
<g
   id="Layer_4"
   display="none"
   transform="translate(-61,-107)">
</g>
<g
   id="Layer_5"
   transform="matrix(1,0,0,-1,-61,1183)">
	<rect
   display="none"
   fill="#5571c9"
   width="1545"
   height="1181"
   id="rect6"
   x="0"
   y="0" />
	<g
   display="none"
   id="g126">
		<rect
   x="52"
   y="620"
   display="inline"
   fill="#222260"
   width="118"
   height="557"
   id="rect8" />
		<rect
   x="105"
   y="471"
   display="inline"
   fill="#222260"
   width="12"
   height="8"
   id="rect10" />
		<rect
   x="110"
   y="423"
   display="inline"
   fill="#222260"
   width="2"
   height="51"
   id="rect12" />
		<rect
   x="1252"
   y="599"
   display="inline"
   fill="#222260"
   width="12"
   height="8"
   id="rect14" />
		<rect
   x="1257"
   y="585"
   display="inline"
   fill="#222260"
   width="2"
   height="17"
   id="rect16" />
		<rect
   x="1088"
   y="509"
   display="inline"
   fill="#222260"
   width="12"
   height="8"
   id="rect18" />
		<rect
   x="1093"
   y="495"
   display="inline"
   fill="#222260"
   width="2"
   height="17"
   id="rect20" />
		<rect
   x="61"
   y="612"
   display="inline"
   fill="#222260"
   width="100"
   height="15"
   id="rect22" />
		<polygon
   display="inline"
   fill="#222260"
   points="156.797,540 157.971,545 64.029,545 65.203,540 "
   id="polygon24" />
		<polygon
   display="inline"
   fill="#222260"
   points="149,616 155,543 67,543 73,616 "
   id="polygon26" />
		<polygon
   display="inline"
   fill="#222260"
   points="128.667,476 142,541 80,541 93.333,476 "
   id="polygon28" />
		<polygon
   display="inline"
   fill="#222260"
   points="315,579 315,1177 224,1177 236,648.5 "
   id="polygon30" />
		<rect
   x="380"
   y="655"
   display="inline"
   fill="#222260"
   width="91"
   height="522"
   id="rect32" />
		<rect
   x="388"
   y="647"
   display="inline"
   fill="#222260"
   width="75"
   height="11"
   id="rect34" />
		<rect
   x="395"
   y="591"
   display="inline"
   fill="#222260"
   width="61"
   height="59"
   id="rect36" />
		<rect
   x="405"
   y="584"
   display="inline"
   fill="#222260"
   width="41"
   height="11"
   id="rect38" />
		<polyline
   display="inline"
   fill="#222260"
   points="606,495 656,495 651,633 656,1177 545,1177 554,640.5   "
   id="polyline40" />
		<path
   display="inline"
   fill="#222260"
   d="m 794,1177 h -69 c 0,0 12.509,-281.16 12.424,-375 -0.041,-45.548 -3.358,-182 -3.358,-182 h 50.868 c 0,0 -3.317,136.451 -3.358,182 -0.085,93.84 12.424,375 12.424,375 z"
   id="path42" />
		<rect
   x="868"
   y="693"
   display="inline"
   fill="#222260"
   width="122"
   height="484"
   id="rect44" />
		<rect
   x="868"
   y="601"
   display="inline"
   fill="#222260"
   width="61"
   height="95"
   id="rect46" />
		<polygon
   display="inline"
   fill="#222260"
   points="617,567 617,662 565,662 556,567 "
   id="polygon48" />
		<rect
   x="939"
   y="643"
   display="inline"
   fill="#222260"
   width="51"
   height="53"
   id="rect50" />
		<rect
   x="948"
   y="633"
   display="inline"
   fill="#222260"
   width="33"
   height="15"
   id="rect52" />
		<rect
   x="969"
   y="612"
   display="inline"
   fill="#222260"
   width="6"
   height="23"
   id="rect54" />
		<rect
   x="897"
   y="545"
   display="inline"
   fill="#222260"
   width="2"
   height="31"
   id="rect56" />
		<rect
   x="758"
   y="535"
   display="inline"
   fill="#222260"
   width="2"
   height="31"
   id="rect58" />
		<rect
   x="954"
   y="625"
   display="inline"
   fill="#222260"
   width="6"
   height="10"
   id="rect60" />
		<polygon
   display="inline"
   fill="#222260"
   points="917,574 919,608 878,608 880,574 "
   id="polygon62" />
		<polygon
   display="inline"
   fill="#222260"
   points="1129.244,514 1133,608 1056,608 1059.756,514 "
   id="polygon64" />
		<rect
   x="1038"
   y="588"
   display="inline"
   fill="#222260"
   width="112"
   height="589"
   id="rect66" />
		<polygon
   display="inline"
   fill="#222260"
   points="1316,655 1314,1177 1201,1177 1199,655 "
   id="polygon68" />
		<polygon
   display="inline"
   fill="#222260"
   points="1318.213,638 1316.137,657 1198.863,657 1196.787,638 "
   id="polygon70" />
		<polygon
   display="inline"
   fill="#222260"
   points="1470,622 1465,1177 1375,1177 1366,622 "
   id="polygon72" />
		<polygon
   display="inline"
   fill="#222260"
   points="1502.861,571 1498.347,626 1418,626 1418,571 "
   id="polygon74" />
		<polygon
   display="inline"
   fill="#222260"
   points="1483.472,518 1480.577,581 1363.791,581 1361.861,518 "
   id="polygon76" />
		<rect
   x="1358"
   y="514"
   display="inline"
   fill="#222260"
   width="129"
   height="7"
   id="rect78" />
		<rect
   x="1367"
   y="577"
   display="inline"
   fill="#222260"
   width="29"
   height="7"
   id="rect80" />
		<rect
   x="1373"
   y="581"
   display="inline"
   fill="#222260"
   width="17"
   height="7"
   id="rect82" />
		<rect
   x="1377"
   y="586"
   display="inline"
   fill="#222260"
   width="9"
   height="10"
   id="rect84" />
		<rect
   x="1381"
   y="594"
   display="inline"
   fill="#222260"
   width="1"
   height="13"
   id="rect86" />
		<rect
   x="1466"
   y="568"
   display="inline"
   fill="#222260"
   width="39"
   height="6"
   id="rect88" />
		<ellipse
   display="inline"
   fill="#222260"
   cx="1257.5"
   cy="644"
   rx="44.5"
   ry="39.666"
   id="ellipse90" />
		<ellipse
   display="inline"
   fill="#222260"
   cx="1422.609"
   cy="517.672"
   rx="60.838001"
   ry="53.063"
   id="ellipse92" />
		<polygon
   display="inline"
   fill="#222260"
   points="785,621 790,615 729,615 734,621 "
   id="polygon94" />
		<polygon
   display="inline"
   fill="#222260"
   points="786,574 788,580 731,580 733,574 "
   id="polygon96" />
		<polygon
   display="inline"
   fill="#222260"
   points="767.43,564 773.075,576 745.925,576 751.57,564 "
   id="polygon98" />
		<rect
   x="424"
   y="550"
   display="inline"
   fill="#222260"
   width="2"
   height="31"
   id="rect100" />
		<polygon
   display="inline"
   fill="#222260"
   points="433.43,579 439.075,591 411.925,591 417.57,579 "
   id="polygon102" />
		<ellipse
   display="inline"
   fill="#222260"
   cx="759.5"
   cy="598"
   rx="47.167"
   ry="23.333"
   id="ellipse104" />
		<rect
   y="743"
   display="inline"
   fill="#222260"
   width="61"
   height="434"
   id="rect106"
   x="0" />
		<rect
   x="145"
   y="852"
   display="inline"
   fill="#222260"
   width="101"
   height="325"
   id="rect108" />
		<rect
   x="298"
   y="792"
   display="inline"
   fill="#222260"
   width="101"
   height="385"
   id="rect110" />
		<rect
   x="453"
   y="822"
   display="inline"
   fill="#222260"
   width="101"
   height="355"
   id="rect112" />
		<rect
   x="646"
   y="752"
   display="inline"
   fill="#222260"
   width="101"
   height="425"
   id="rect114" />
		<rect
   x="773"
   y="815"
   display="inline"
   fill="#222260"
   width="101"
   height="362"
   id="rect116" />
		<rect
   x="963"
   y="853"
   display="inline"
   fill="#222260"
   width="101"
   height="324"
   id="rect118" />
		<rect
   x="1127"
   y="757"
   display="inline"
   fill="#222260"
   width="101"
   height="420"
   id="rect120" />
		<rect
   x="1299"
   y="798"
   display="inline"
   fill="#222260"
   width="101"
   height="379"
   id="rect122" />
		<rect
   x="1449"
   y="763"
   display="inline"
   fill="#222260"
   width="101"
   height="414"
   id="rect124" />
	</g>
	<g
   display="none"
   id="g224">
		<rect
   y="869"
   display="inline"
   fill="#1a1a4f"
   width="92"
   height="308"
   id="rect128"
   x="0" />
		<polygon
   display="inline"
   fill="#1a1a4f"
   points="136,892 136,1177 80,1177 80,915 "
   id="polygon130" />
		<rect
   x="208"
   y="932"
   display="inline"
   fill="#1a1a4f"
   width="56"
   height="245"
   id="rect132" />
		<rect
   x="385"
   y="960"
   display="inline"
   fill="#1a1a4f"
   width="56"
   height="217"
   id="rect134" />
		<rect
   x="514"
   y="885"
   display="inline"
   fill="#1a1a4f"
   width="56"
   height="292"
   id="rect136" />
		<rect
   x="646"
   y="919"
   display="inline"
   fill="#1a1a4f"
   width="56"
   height="258"
   id="rect138" />
		<polygon
   display="inline"
   fill="#1a1a4f"
   points="897,943 897,1177 841,1177 841,921 "
   id="polygon140" />
		<rect
   x="962"
   y="915"
   display="inline"
   fill="#1a1a4f"
   width="56"
   height="262"
   id="rect142" />
		<rect
   x="1121"
   y="952"
   display="inline"
   fill="#1a1a4f"
   width="56"
   height="225"
   id="rect144" />
		<polygon
   display="inline"
   fill="#1a1a4f"
   points="1311,915 1311,1177 1251,1177 1251,894 "
   id="polygon146" />
		<polygon
   display="inline"
   fill="#1a1a4f"
   points="1463,943 1463,1177 1403,1177 1403,952 "
   id="polygon148" />
		<polygon
   display="inline"
   fill="#1a1a4f"
   points="221,817 221,1177 129,1177 129,743 "
   id="polygon150" />
		<rect
   x="254"
   y="904"
   display="inline"
   fill="#1a1a4f"
   width="140"
   height="273"
   id="rect152" />
		<polygon
   display="inline"
   fill="#1a1a4f"
   points="377,833 379,919 269,919 271,833 "
   id="polygon154" />
		<rect
   x="330"
   y="813"
   display="inline"
   fill="#1a1a4f"
   width="36"
   height="30"
   id="rect156" />
		<rect
   x="1085"
   y="868"
   display="inline"
   fill="#1a1a4f"
   width="36"
   height="30"
   id="rect158" />
		<polygon
   display="inline"
   fill="#1a1a4f"
   points="948,801 948,831 911,831 911,809.283 "
   id="polygon160" />
		<rect
   x="280"
   y="822"
   display="inline"
   fill="#1a1a4f"
   width="36"
   height="17"
   id="rect162" />
		<polygon
   display="inline"
   fill="#1a1a4f"
   points="521,772 521,1177 429,1177 429,848 "
   id="polygon164" />
		<polygon
   display="inline"
   fill="#1a1a4f"
   points="443,721 443,846 493,846 493,765.578 "
   id="polygon166" />
		<polygon
   display="inline"
   fill="#1a1a4f"
   points="697,752 697,877 747,877 747,796.578 "
   id="polygon168" />
		<polygon
   display="inline"
   fill="#1a1a4f"
   points="846,707.5 846,958 746,958 746,796.656 "
   id="polygon170" />
		<rect
   x="561"
   y="782"
   display="inline"
   fill="#1a1a4f"
   width="91"
   height="395"
   id="rect172" />
		<rect
   x="696"
   y="869"
   display="inline"
   fill="#1a1a4f"
   width="150"
   height="308"
   id="rect174" />
		<polygon
   display="inline"
   fill="#1a1a4f"
   points="964.586,821 969.763,1177 889,1177 894.177,821 "
   id="polygon176" />
		<rect
   x="1013"
   y="883"
   display="inline"
   fill="#1a1a4f"
   width="116"
   height="294"
   id="rect178" />
		<polygon
   display="inline"
   fill="#1a1a4f"
   points="1258,708 1258,1177 1168,1177 1185.694,736 "
   id="polygon180" />
		<rect
   x="1304"
   y="865"
   display="inline"
   fill="#1a1a4f"
   width="108"
   height="312"
   id="rect182" />
		<rect
   x="1455"
   y="839"
   display="inline"
   fill="#1a1a4f"
   width="90"
   height="338"
   id="rect184" />
		<polygon
   display="inline"
   fill="#1a1a4f"
   points="1525.5,792 1530.5,853 1469.5,853 1474.5,792 "
   id="polygon186" />
		<rect
   x="20"
   y="840"
   display="inline"
   fill="#1a1a4f"
   width="52"
   height="37"
   id="rect188" />
		<rect
   x="576"
   y="757"
   display="inline"
   fill="#1a1a4f"
   width="62"
   height="37"
   id="rect190" />
		<rect
   x="590"
   y="726"
   display="inline"
   fill="#1a1a4f"
   width="34"
   height="37"
   id="rect192" />
		<rect
   x="605"
   y="699"
   display="inline"
   fill="#1a1a4f"
   width="3"
   height="37"
   id="rect194" />
		<polygon
   display="inline"
   fill="#1a1a4f"
   points="1258,726 1258,680 1255,682.667 1255,726 "
   id="polygon196" />
		<rect
   x="43"
   y="794"
   display="inline"
   fill="#1a1a4f"
   width="6"
   height="54"
   id="rect198" />
		<rect
   x="289"
   y="792"
   display="inline"
   fill="#1a1a4f"
   width="6"
   height="36"
   id="rect200" />
		<rect
   x="493"
   y="752"
   display="inline"
   fill="#1a1a4f"
   width="10"
   height="47"
   id="rect202" />
		<rect
   x="496"
   y="726"
   display="inline"
   fill="#1a1a4f"
   width="4"
   height="28"
   id="rect204" />
		<rect
   x="1498"
   y="746"
   display="inline"
   fill="#1a1a4f"
   width="3"
   height="52"
   id="rect206" />
		<rect
   x="1495"
   y="784"
   display="inline"
   fill="#1a1a4f"
   width="9"
   height="13"
   id="rect208" />
		<rect
   x="301"
   y="805"
   display="inline"
   fill="#1a1a4f"
   width="6"
   height="23"
   id="rect210" />
		<rect
   x="1028"
   y="835"
   display="inline"
   fill="#1a1a4f"
   width="36"
   height="17"
   id="rect212" />
		<rect
   x="1037"
   y="805"
   display="inline"
   fill="#1a1a4f"
   width="6"
   height="36"
   id="rect214" />
		<rect
   x="1049"
   y="818"
   display="inline"
   fill="#1a1a4f"
   width="6"
   height="23"
   id="rect216" />
		<polygon
   display="inline"
   fill="#1a1a4f"
   points="1079,894 1075,844 1017,844 1013,894 "
   id="polygon218" />
		<rect
   x="1332"
   y="806"
   display="inline"
   fill="#1a1a4f"
   width="35"
   height="64"
   id="rect220" />
		<rect
   x="1364"
   y="845"
   display="inline"
   fill="#1a1a4f"
   width="30"
   height="64"
   id="rect222" />
	</g>
	<path
   display="none"
   fill="#101038"
   d="M 1545,1181 H 0 v -69 c 96,-110.5 1451.021,-108.918 1545,-14.5 z"
   id="path226" />
	<g
   display="none"
   id="g236">
		<polygon
   display="inline"
   fill="#2b2b6d"
   points="147,1177 249,1177 307,337 268,133 132,133 92,337 "
   id="polygon228" />
		<polygon
   display="inline"
   fill="#ffffff"
   points="200,214.388 249.391,336.997 200,459.605 150.609,336.997 "
   id="polygon230" />
		<ellipse
   display="inline"
   fill="#2b2b6d"
   cx="200"
   cy="336.99701"
   rx="30.333"
   ry="40.880001"
   id="ellipse232" />
		<rect
   x="198"
   y="195"
   display="inline"
   fill="#2b2b6d"
   width="4"
   height="284"
   id="rect234" />
	</g>
	<g
   id="g366">
		<rect
   x="1282"
   y="503"
   fill="#32327c"
   width="127"
   height="13"
   id="rect238" />
		<rect
   x="1301"
   y="382"
   fill="#32327c"
   width="89"
   height="20"
   id="rect240" />
		<rect
   x="1290"
   y="394"
   fill="#32327c"
   width="111"
   height="116"
   id="rect242" />
		<polygon
   fill="#32327c"
   points="1381,385 1381,296 1310,269 1310,385 "
   id="polygon244" />
		<rect
   x="1267"
   y="512"
   fill="#32327c"
   width="156"
   height="665"
   id="rect246" />
		<path
   fill="#32327c"
   d="M 233,1174 H 77 C 77,1174 91.727,549.098 72.347,342 70.879,326.311 61,280 61,280 l 145.667,-35.333 40,35.333 c 0,0 -7.785,36.853 -8.942,49.334 C 218.231,539.602 233,1174 233,1174 Z"
   id="path248" />
		<rect
   x="856"
   y="107"
   fill="#32327c"
   width="2"
   height="77"
   id="rect250" />
		<rect
   x="160"
   y="188"
   fill="#32327c"
   width="2"
   height="77"
   id="rect252" />
		<rect
   x="155"
   y="250"
   fill="#32327c"
   width="12"
   height="13"
   id="rect254" />
		<rect
   x="1345"
   y="218"
   fill="#32327c"
   width="2"
   height="77"
   id="rect256" />
		<rect
   x="1340"
   y="281"
   fill="#32327c"
   width="13"
   height="7"
   id="rect258" />
		<path
   fill="#32327c"
   d="M 498,1177 H 342 c 0,-357 61,-460 25.734,-840 0,0 128.495,-13.884 172.32,-42.054 C 496.229,486.608 498,1177 498,1177 Z"
   id="path260" />
		<polygon
   fill="#32327c"
   points="417,303.333 417,348 385,348 385,318 "
   id="polygon262" />
		
			<rect
   x="559"
   y="207"
   transform="matrix(0.8873,0.4612,-0.4612,0.8873,181.1329,-229.1954)"
   fill="#32327c"
   width="1"
   height="98"
   id="rect264" />
		<path
   fill="#32327c"
   d="M 572.151,344.32 C 563,353.333 556,299.706 561,283.667 c 2.872,-9.214 7.901,-24.446 -1.396,-26.783 5.479,-3.093 10.479,-14.843 10.651,-20.488 5.036,-3.688 10.661,-15.479 10.647,-20.544 8.635,-2.947 9.291,37.069 6.763,47.089 -2.851,11.3 -6.642,40.059 4.762,40.089 1.857,5.441 -9.894,18.309 -12.428,23.469 -2.534,5.162 -5.25,13.666 -7.848,17.821 z"
   id="path266" />
		<g
   id="g354">
			<rect
   x="1081"
   y="268"
   fill="#32327c"
   width="24"
   height="14"
   id="rect268" />
			<polygon
   fill="#32327c"
   points="1092,186 1092.5,177 1093,186 1093.895,262.125 1096,272 1089,272 1091.104,262.125 "
   id="polygon270" />
			<path
   fill="#32327c"
   d="M 1173,1183 H 1017 V 449 c 9.667,-59.667 128.333,-68.335 156,-91.667 z"
   id="path272" />
			<path
   fill="#32327c"
   d="m 1048,770 h 96 V 314.88 c -6,-37.024 -82,-42.402 -99,-56.88 z"
   id="path274" />
			<polygon
   fill="#32327c"
   points="1099,223 1099,236 1096,237 1096,222 "
   id="polygon276" />
			<polygon
   fill="#32327c"
   points="1096,222 1096.833,222 1099,223 1099,236 1096.75,237 1096,237 "
   id="polygon278" />
			<polygon
   fill="#32327c"
   points="1086,189 1088.125,187 1089,187 1089,202 1088.063,202 1086,201 "
   id="polygon280" />
			<path
   fill="#32327c"
   d="m 1089.5,209.125 c 0,1.864 -0.302,3.375 -2.063,3.375 -1.761,0 -2.25,-1.511 -2.25,-3.375 0,-1.864 0.49,-3.375 2.25,-3.375 1.76,0 2.063,1.511 2.063,3.375 z"
   id="path282" />
			<path
   fill="#32327c"
   d="m 1099.313,186.125 c 0,1.657 -0.253,3 -1.875,3 -1.622,0 -1.438,-1.343 -1.438,-3 0,-1.657 -0.185,-3 1.438,-3 1.623,0 1.875,1.343 1.875,3 z"
   id="path284" />
			<path
   fill="#32327c"
   d="m 1098.313,201 c 0,1.588 -0.607,2.875 -2.206,2.875 -1.598,0 -2.232,-1.288 -2.232,-2.875 0,-1.587 0.634,-2.875 2.232,-2.875 1.598,-0.001 2.206,1.287 2.206,2.875 z"
   id="path286" />
			<circle
   fill="#32327c"
   cx="1092.188"
   cy="223.063"
   r="3.188"
   id="circle288" />
			<path
   fill="#32327c"
   d="m 1092.188,235 c 0,1.587 -0.516,2.875 -2.188,2.875 -1.672,0 -2,-1.288 -2,-2.875 0,-1.587 0.328,-2.875 2,-2.875 1.671,0 2.188,1.288 2.188,2.875 z"
   id="path290" />
			<path
   fill="#32327c"
   d="m 1096.417,246.875 c 0,1.519 -0.712,2.75 -2.31,2.75 -1.598,0 -1.919,-1.231 -1.919,-2.75 0,-1.519 0.322,-2.75 1.919,-2.75 1.597,0 2.31,1.231 2.31,2.75 z"
   id="path292" />
			
				<line
   fill="none"
   stroke="#32327c"
   stroke-width="0.3"
   stroke-miterlimit="10"
   x1="1092.781"
   y1="183.688"
   x2="1096.563"
   y2="184.90601"
   id="line294" />
			
				<line
   fill="none"
   stroke="#32327c"
   stroke-width="0.3"
   stroke-miterlimit="10"
   x1="1096.375"
   y1="184.90601"
   x2="1092.781"
   y2="186.625"
   id="line296" />
			
				<line
   fill="none"
   stroke="#32327c"
   stroke-width="0.3"
   stroke-miterlimit="10"
   x1="1092.781"
   y1="186.625"
   x2="1096.375"
   y2="187.563"
   id="line298" />
			
				<line
   fill="none"
   stroke="#32327c"
   stroke-width="0.3"
   stroke-miterlimit="10"
   x1="1096.375"
   y1="187.563"
   x2="1092.781"
   y2="189.375"
   id="line300" />
			
				<line
   fill="none"
   stroke="#32327c"
   stroke-width="0.3"
   stroke-miterlimit="10"
   x1="1092.458"
   y1="187.29201"
   x2="1088.125"
   y2="188.58"
   id="line302" />
			
				<line
   fill="none"
   stroke="#32327c"
   stroke-width="0.3"
   stroke-miterlimit="10"
   x1="1088.125"
   y1="188.58"
   x2="1092.25"
   y2="189.868"
   id="line304" />
			
				<line
   fill="none"
   stroke="#32327c"
   stroke-width="0.3"
   stroke-miterlimit="10"
   x1="1092.25"
   y1="189.868"
   x2="1088.167"
   y2="191.308"
   id="line306" />
			
				<line
   fill="none"
   stroke="#32327c"
   stroke-width="0.3"
   stroke-miterlimit="10"
   x1="1088.167"
   y1="191.308"
   x2="1092.333"
   y2="192.495"
   id="line308" />
			
				<line
   fill="none"
   stroke="#32327c"
   stroke-width="0.3"
   stroke-miterlimit="10"
   x1="1092.333"
   y1="192.495"
   x2="1088.375"
   y2="193.83299"
   id="line310" />
			
				<line
   fill="none"
   stroke="#32327c"
   stroke-width="0.3"
   stroke-miterlimit="10"
   x1="1088.375"
   y1="193.83299"
   x2="1092.083"
   y2="195.5"
   id="line312" />
			
				<line
   fill="none"
   stroke="#32327c"
   stroke-width="0.3"
   stroke-miterlimit="10"
   x1="1092.958"
   y1="199"
   x2="1094.625"
   y2="200.125"
   id="line314" />
			
				<line
   fill="none"
   stroke="#32327c"
   stroke-width="0.3"
   stroke-miterlimit="10"
   x1="1094.875"
   y1="202.04201"
   x2="1092.625"
   y2="203.625"
   id="line316" />
			
				<line
   fill="none"
   stroke="#32327c"
   stroke-width="0.3"
   stroke-miterlimit="10"
   x1="1092.083"
   y1="195.5"
   x2="1088.625"
   y2="197.15601"
   id="line318" />
			
				<line
   fill="none"
   stroke="#32327c"
   stroke-width="0.3"
   stroke-miterlimit="10"
   x1="1088.625"
   y1="197.15601"
   x2="1091.969"
   y2="199"
   id="line320" />
			
				<line
   fill="none"
   stroke="#32327c"
   stroke-width="0.3"
   stroke-miterlimit="10"
   x1="1092.333"
   y1="205.495"
   x2="1088.375"
   y2="207.83299"
   id="line322" />
			
				<line
   fill="none"
   stroke="#32327c"
   stroke-width="0.3"
   stroke-miterlimit="10"
   x1="1088.375"
   y1="207.83299"
   x2="1092.083"
   y2="209.5"
   id="line324" />
			
				<line
   fill="none"
   stroke="#32327c"
   stroke-width="0.3"
   stroke-miterlimit="10"
   x1="1092.083"
   y1="209.5"
   x2="1088.625"
   y2="211.15601"
   id="line326" />
			
				<line
   fill="none"
   stroke="#32327c"
   stroke-width="0.3"
   stroke-miterlimit="10"
   x1="1088.625"
   y1="211.15601"
   x2="1091.969"
   y2="213"
   id="line328" />
			
				<line
   fill="none"
   stroke="#32327c"
   stroke-width="0.3"
   stroke-miterlimit="10"
   x1="1091.969"
   y1="199"
   x2="1088.688"
   y2="200.063"
   id="line330" />
			
				<line
   fill="none"
   stroke="#32327c"
   stroke-width="0.3"
   stroke-miterlimit="10"
   x1="1088.688"
   y1="200.063"
   x2="1092.219"
   y2="201.5"
   id="line332" />
			
				<line
   fill="none"
   stroke="#32327c"
   stroke-width="0.3"
   stroke-miterlimit="10"
   x1="1093.125"
   y1="222.29201"
   x2="1097.459"
   y2="223.58"
   id="line334" />
			
				<line
   fill="none"
   stroke="#32327c"
   stroke-width="0.3"
   stroke-miterlimit="10"
   x1="1097.459"
   y1="223.58"
   x2="1093.334"
   y2="224.868"
   id="line336" />
			
				<line
   fill="none"
   stroke="#32327c"
   stroke-width="0.3"
   stroke-miterlimit="10"
   x1="1093.334"
   y1="224.868"
   x2="1097.417"
   y2="226.308"
   id="line338" />
			
				<line
   fill="none"
   stroke="#32327c"
   stroke-width="0.3"
   stroke-miterlimit="10"
   x1="1097.417"
   y1="226.308"
   x2="1093.25"
   y2="227.495"
   id="line340" />
			
				<line
   fill="none"
   stroke="#32327c"
   stroke-width="0.3"
   stroke-miterlimit="10"
   x1="1093.25"
   y1="227.495"
   x2="1097.209"
   y2="228.83299"
   id="line342" />
			
				<line
   fill="none"
   stroke="#32327c"
   stroke-width="0.3"
   stroke-miterlimit="10"
   x1="1097.209"
   y1="228.83299"
   x2="1093.5"
   y2="230.5"
   id="line344" />
			
				<line
   fill="none"
   stroke="#32327c"
   stroke-width="0.3"
   stroke-miterlimit="10"
   x1="1093.5"
   y1="230.5"
   x2="1096.959"
   y2="232.15601"
   id="line346" />
			
				<line
   fill="none"
   stroke="#32327c"
   stroke-width="0.3"
   stroke-miterlimit="10"
   x1="1096.959"
   y1="232.15601"
   x2="1093.615"
   y2="234"
   id="line348" />
			
				<line
   fill="none"
   stroke="#32327c"
   stroke-width="0.3"
   stroke-miterlimit="10"
   x1="1093.615"
   y1="234"
   x2="1096.896"
   y2="235.063"
   id="line350" />
			
				<line
   fill="none"
   stroke="#32327c"
   stroke-width="0.3"
   stroke-miterlimit="10"
   x1="1096.896"
   y1="235.063"
   x2="1093.365"
   y2="236.5"
   id="line352" />
		</g>
		<g
   id="g362">
			<polygon
   fill="#32327c"
   points="858,178 874,1183 718,1183 747,210 "
   id="polygon356" />
			<polygon
   fill="#32327c"
   points="817,323.964 817,1183 661,1183 690,372 "
   id="polygon358" />
			<polygon
   fill="#32327c"
   points="919,453.5 936,1183 780,1183 806.667,423 "
   id="polygon360" />
		</g>
		<path
   fill="#32327c"
   d="M 650.5,296"
   id="path364" />
	</g>
</g>
<g
   id="Layer_6"
   display="none"
   transform="translate(-61,-107)">
</g>
</svg>
