<?xml version="1.0" encoding="UTF-8" standalone="no"?>
<svg
   xmlns:dc="http://purl.org/dc/elements/1.1/"
   xmlns:cc="http://creativecommons.org/ns#"
   xmlns:rdf="http://www.w3.org/1999/02/22-rdf-syntax-ns#"
   xmlns:svg="http://www.w3.org/2000/svg"
   xmlns="http://www.w3.org/2000/svg"
   xmlns:sodipodi="http://sodipodi.sourceforge.net/DTD/sodipodi-0.dtd"
   xmlns:inkscape="http://www.inkscape.org/namespaces/inkscape"
   version="1.1"
   x="0px"
   y="0px"
   width="1545"
   height="657"
   viewBox="0 0 1545 657"
   enable-background="new 0 0 1280 3015.447"
   xml:space="preserve"
   id="svg169"
   sodipodi:docname="bg-par-2-1-03.svg"
   inkscape:version="1.0.2-2 (e86c870879, 2021-01-15)"><metadata
   id="metadata175"><rdf:RDF><cc:Work
       rdf:about=""><dc:format>image/svg+xml</dc:format><dc:type
         rdf:resource="http://purl.org/dc/dcmitype/StillImage" /></cc:Work></rdf:RDF></metadata><defs
   id="defs173" /><sodipodi:namedview
   pagecolor="#ffffff"
   bordercolor="#666666"
   borderopacity="1"
   objecttolerance="10"
   gridtolerance="10"
   guidetolerance="10"
   inkscape:pageopacity="0"
   inkscape:pageshadow="2"
   inkscape:window-width="1304"
   inkscape:window-height="745"
   id="namedview171"
   showgrid="false"
   inkscape:zoom="0.16382314"
   inkscape:cx="788"
   inkscape:cy="-364.39199"
   inkscape:window-x="-8"
   inkscape:window-y="-8"
   inkscape:window-maximized="1"
   inkscape:current-layer="svg169" />
<g
   id="Layer_1"
   display="none"
   transform="translate(148,-2360.447)">
</g>
<g
   id="Layer_2"
   transform="rotate(180,698.5,1508.7235)">
	<rect
   x="-148"
   y="0.447"
   display="none"
   fill="#b3c9ab"
   width="1545"
   height="3017"
   id="rect3" />
	<g
   display="none"
   id="g23">
		<polygon
   display="inline"
   fill="#6eba79"
   points="539,798.447 539,3015.447 219,3015.447 219,657.066 "
   id="polygon5" />
		<polygon
   display="inline"
   fill="#6eba79"
   points="278,489.483 278,1958.447 490,1958.447 490,395.785 "
   id="polygon7" />
		<polygon
   display="inline"
   fill="#6eba79"
   points="443,280.709 443,1374.447 317,1374.447 317,210.893 "
   id="polygon9" />
		<polygon
   display="inline"
   fill="#6eba79"
   points="112,997.453 112,3015.447 326,3015.447 326,868.763 "
   id="polygon11" />
		<polygon
   display="inline"
   fill="#6eba79"
   points="635,1192.799 635,3015.447 443,3015.447 443,1076.566 "
   id="polygon13" />
		<rect
   x="378"
   y="126.447"
   display="inline"
   fill="#6eba79"
   width="13"
   height="159"
   id="rect15" />
		<rect
   x="364"
   y="218.44701"
   display="inline"
   fill="#6eba79"
   width="41"
   height="67"
   id="rect17" />
		<rect
   x="602"
   y="1894.447"
   display="inline"
   fill="#6eba79"
   width="795"
   height="1123"
   id="rect19" />
		<rect
   x="-148"
   y="1894.447"
   display="inline"
   fill="#6eba79"
   width="306"
   height="1123"
   id="rect21" />
	</g>
	<g
   display="none"
   id="g57">
		<polygon
   display="inline"
   fill="#327c51"
   points="317,1318.447 317,3017.447 20,3017.447 20,1134.447 "
   id="polygon25" />
		<path
   display="inline"
   fill="#327c51"
   d="M 65,2593.447 H 306 V 1065.636 C 185.5,1061.329 65,1215.02 65,1215.02 Z"
   id="path27" />
		<rect
   x="485"
   y="1473.447"
   display="inline"
   fill="#327c51"
   width="297"
   height="1544"
   id="rect29" />
		<rect
   x="60"
   y="1044.447"
   display="inline"
   fill="#327c51"
   width="9"
   height="171"
   id="rect31" />
		<rect
   x="408"
   y="1530.447"
   display="inline"
   fill="#327c51"
   width="9"
   height="91"
   id="rect33" />
		<rect
   x="442"
   y="1487.447"
   display="inline"
   fill="#327c51"
   width="9"
   height="146"
   id="rect35" />
		<rect
   x="401"
   y="1571.447"
   display="inline"
   fill="#327c51"
   width="57"
   height="114"
   id="rect37" />
		<ellipse
   display="inline"
   fill="#327c51"
   cx="633.5"
   cy="1480.792"
   rx="114"
   ry="106.655"
   id="ellipse39" />
		<rect
   x="625"
   y="1288.447"
   display="inline"
   fill="#327c51"
   width="9"
   height="171"
   id="rect41" />
		<rect
   x="620"
   y="1338.447"
   display="inline"
   fill="#327c51"
   width="19"
   height="63"
   id="rect43" />
		<polygon
   display="inline"
   fill="#327c51"
   points="495,1653.447 495,3017.447 304,3017.447 304,1522.447 "
   id="polygon45" />
		<rect
   x="1219"
   y="1632.447"
   display="inline"
   fill="#327c51"
   width="180"
   height="1385"
   id="rect47" />
		<rect
   x="-148"
   y="1752.447"
   display="inline"
   fill="#327c51"
   width="180"
   height="1265"
   id="rect49" />
		<rect
   x="758"
   y="1719.447"
   display="inline"
   fill="#327c51"
   width="227"
   height="1298"
   id="rect51" />
		<polygon
   display="inline"
   fill="#327c51"
   points="1181,1349.447 1181,3017.447 962,3017.447 962,1134.447 "
   id="polygon53" />
		<polygon
   display="inline"
   fill="#327c51"
   points="1243,1374.137 1243,3017.447 1171,3017.447 1171,1440.447 "
   id="polygon55" />
	</g>
	<g
   display="none"
   id="g101">
		<polygon
   display="inline"
   fill="#226052"
   points="138,1807.447 138,3017.447 -148,3017.447 -148,1602.159 "
   id="polygon59" />
		<polygon
   display="inline"
   fill="#226052"
   points="75,1556.327 75,2234.447 -85,2234.447 -85,1441.282 "
   id="polygon61" />
		<rect
   x="1111"
   y="1978.447"
   display="inline"
   fill="#226052"
   width="288"
   height="1039"
   id="rect63" />
		<rect
   x="1139"
   y="1941.447"
   display="inline"
   fill="#226052"
   width="232"
   height="43"
   id="rect65" />
		<rect
   x="1182"
   y="1783.447"
   display="inline"
   fill="#226052"
   width="146"
   height="161"
   id="rect67" />
		<rect
   x="1206"
   y="1740.447"
   display="inline"
   fill="#226052"
   width="98"
   height="57"
   id="rect69" />
		<rect
   x="692"
   y="1838.447"
   display="inline"
   fill="#226052"
   width="326"
   height="1179"
   id="rect71" />
		<polygon
   display="inline"
   fill="#226052"
   points="949,1632.447 954,1840.447 756,1840.447 761,1632.447 "
   id="polygon73" />
		<rect
   x="800"
   y="1515.447"
   display="inline"
   fill="#226052"
   width="110"
   height="124"
   id="rect75" />
		<rect
   x="242"
   y="1959.447"
   display="inline"
   fill="#226052"
   width="326"
   height="1058"
   id="rect77" />
		<rect
   x="104"
   y="2145.447"
   display="inline"
   fill="#226052"
   width="163"
   height="872"
   id="rect79" />
		<rect
   x="552"
   y="2364.447"
   display="inline"
   fill="#226052"
   width="163"
   height="653"
   id="rect81" />
		<rect
   x="985"
   y="2234.447"
   display="inline"
   fill="#226052"
   width="163"
   height="783"
   id="rect83" />
		<rect
   x="289"
   y="1850.447"
   display="inline"
   fill="#226052"
   width="232"
   height="121"
   id="rect85" />
		<rect
   x="409"
   y="1802.447"
   display="inline"
   fill="#226052"
   width="86"
   height="55"
   id="rect87" />
		<rect
   x="315"
   y="1834.447"
   display="inline"
   fill="#226052"
   width="86"
   height="23"
   id="rect89" />
		<rect
   x="326"
   y="1751.447"
   display="inline"
   fill="#226052"
   width="23"
   height="86"
   id="rect91" />
		<rect
   x="847"
   y="1360.447"
   display="inline"
   fill="#226052"
   width="15"
   height="164"
   id="rect93" />
		<rect
   x="-17"
   y="1358.447"
   display="inline"
   fill="#226052"
   width="23"
   height="164"
   id="rect95" />
		<rect
   x="1251"
   y="1588.447"
   display="inline"
   fill="#226052"
   width="7"
   height="164"
   id="rect97" />
		<rect
   x="366"
   y="1780.447"
   display="inline"
   fill="#226052"
   width="23"
   height="57"
   id="rect99" />
	</g>
	<g
   id="g163">
		<rect
   x="-148"
   y="2596.447"
   fill="#1a394f"
   width="226"
   height="421"
   id="rect103" />
		<rect
   x="123"
   y="2428.447"
   fill="#1a394f"
   width="334"
   height="589"
   id="rect105" />
		<rect
   x="745"
   y="2700.447"
   fill="#1a394f"
   width="286"
   height="317"
   id="rect107" />
		<rect
   x="776"
   y="2513.447"
   fill="#1a394f"
   width="224"
   height="145"
   id="rect109" />
		<rect
   x="828"
   y="2382.447"
   fill="#1a394f"
   width="120"
   height="95"
   id="rect111" />
		<g
   id="g117">
			<rect
   x="922"
   y="2473.447"
   fill="#1a394f"
   width="13"
   height="25"
   id="rect113" />
			<rect
   x="840"
   y="2473.447"
   fill="#1a394f"
   width="13"
   height="25"
   id="rect115" />
		</g>
		<polygon
   fill="#1a394f"
   points="491,2689.957 491.79,2688.447 520.67,2633.447 683.17,2633.447 712.12,2688.447 713,2690.207 713,3017.447 491,3017.447 "
   id="polygon119" />
		<polygon
   fill="#1a394f"
   points="491.79,2688.447 491,2689.957 491,2688.447 "
   id="polygon121" />
		<polygon
   fill="#1a394f"
   points="713,2688.447 713,2690.207 712.12,2688.447 "
   id="polygon123" />
		<rect
   x="1066"
   y="2606.447"
   fill="#1a394f"
   width="331"
   height="411"
   id="rect125" />
		<polygon
   fill="#1a394f"
   points="491,2689.957 491,2690.277 490.83,2690.277 "
   id="polygon127" />
		<polygon
   fill="#1a394f"
   points="713.08,2690.447 713,2690.447 713,2690.207 "
   id="polygon129" />
		<rect
   x="98"
   y="2644.447"
   fill="#1a394f"
   width="384"
   height="60"
   id="rect131" />
		<rect
   x="98"
   y="2453.447"
   fill="#1a394f"
   width="384"
   height="60"
   id="rect133" />
		<polygon
   fill="#1a394f"
   points="242,2360.447 242,2430.447 168,2430.447 184,2360.447 "
   id="polygon135" />
		<rect
   x="261"
   y="2404.447"
   fill="#1a394f"
   width="6"
   height="24"
   id="rect137" />
		<rect
   x="311"
   y="2404.447"
   fill="#1a394f"
   width="6"
   height="24"
   id="rect139" />
		<rect
   x="261"
   y="2398.447"
   fill="#1a394f"
   width="56"
   height="6"
   id="rect141" />
		<rect
   x="261"
   y="2413.447"
   fill="#1a394f"
   width="56"
   height="6"
   id="rect143" />
		<rect
   x="328"
   y="2404.447"
   fill="#1a394f"
   width="6"
   height="24"
   id="rect145" />
		<rect
   x="378"
   y="2404.447"
   fill="#1a394f"
   width="6"
   height="24"
   id="rect147" />
		<rect
   x="328"
   y="2398.447"
   fill="#1a394f"
   width="56"
   height="6"
   id="rect149" />
		<rect
   x="328"
   y="2413.447"
   fill="#1a394f"
   width="56"
   height="6"
   id="rect151" />
		<rect
   x="396"
   y="2412.447"
   fill="#1a394f"
   width="33"
   height="18"
   id="rect153" />
		<polygon
   fill="#1a394f"
   points="1041,2704.447 1031,2647.447 745,2647.447 735,2704.447 "
   id="polygon155" />
		<polygon
   fill="#1a394f"
   points="1015,2531.447 1000,2492.447 776,2492.447 761,2531.447 "
   id="polygon157" />
		<polygon
   fill="#1a394f"
   points="1397,2532.447 1397,2607.447 1041,2607.447 1098,2532.447 "
   id="polygon159" />
		<polygon
   fill="#1a394f"
   points="-148,2602.447 -148,2537.447 36,2537.447 78,2602.447 "
   id="polygon161" />
	</g>
	<path
   display="none"
   fill="#32327c"
   d="M 1397,3017.447 H -148 v -69 c 96,-110.5 1451.021,-108.918 1545,-14.5 z"
   id="path165" />
</g>
<g
   id="Layer_3"
   transform="translate(148,-2360.447)">
</g>
</svg>
