<?xml version="1.0" encoding="UTF-8" standalone="no"?>
<svg
   width="226.42241mm"
   height="116.7145mm"
   viewBox="0 0 226.42241 116.7145"
   version="1.1"
   id="svg8"
   inkscape:version="1.2.1 (0f2f062aeb, 2022-09-21, custom)"
   sodipodi:docname="divisiDesign.svg"
   xmlns:inkscape="http://www.inkscape.org/namespaces/inkscape"
   xmlns:sodipodi="http://sodipodi.sourceforge.net/DTD/sodipodi-0.dtd"
   xmlns="http://www.w3.org/2000/svg"
   xmlns:svg="http://www.w3.org/2000/svg"
   xmlns:rdf="http://www.w3.org/1999/02/22-rdf-syntax-ns#"
   xmlns:cc="http://creativecommons.org/ns#"
   xmlns:dc="http://purl.org/dc/elements/1.1/">
  <defs
     id="defs2" />
  <sodipodi:namedview
     id="base"
     pagecolor="#b9b9b9"
     bordercolor="#666666"
     borderopacity="1.0"
     inkscape:pageopacity="0"
     inkscape:pageshadow="2"
     inkscape:zoom="0.35"
     inkscape:cx="302.85714"
     inkscape:cy="322.85714"
     inkscape:document-units="mm"
     inkscape:current-layer="layer1"
     inkscape:document-rotation="0"
     showgrid="false"
     inkscape:window-width="1366"
     inkscape:window-height="697"
     inkscape:window-x="0"
     inkscape:window-y="0"
     inkscape:window-maximized="1"
     inkscape:showpageshadow="0"
     inkscape:pagecheckerboard="true"
     inkscape:deskcolor="#343434" />
  <metadata
     id="metadata5">
    <rdf:RDF>
      <cc:Work
         rdf:about="">
        <dc:format>image/svg+xml</dc:format>
        <dc:type
           rdf:resource="http://purl.org/dc/dcmitype/StillImage" />
      </cc:Work>
    </rdf:RDF>
  </metadata>
  <g
     inkscape:label="Layer 1"
     inkscape:groupmode="layer"
     id="layer1"
     transform="translate(8.2112042,-61.906998)">
    <g
       aria-label="Design"
       transform="rotate(-3.1624718)"
       id="text835"
       style="font-weight:bold;font-size:84.2137px;line-height:1.25;font-family:Lobster;-inkscape-font-specification:'Lobster Bold';fill:#ffffff;stroke-width:2.10535">
      <path
         d="m 16.641525,165.97336 q -5.052822,0 -10.2740713,-4.46332 l -0.6737096,3.36855 H -6.4330286 L 5.0200345,111.31867 17.483662,109.6344 7.3780181,156.87828 q 2.3579836,1.68428 4.8001809,1.68428 4.800181,0 8.42137,-5.55811 3.705403,-5.5581 5.726531,-14.1479 2.021129,-8.58979 2.021129,-17.34802 0,-8.25294 -3.284334,-12.04256 -3.200121,-3.87383 -9.010866,-3.87383 -6.3160273,0 -11.3688493,2.52641 -4.96860824,2.4422 -7.831874,7.07395 -2.8632658,4.63176 -2.8632658,10.86357 0,3.11591 0.5894959,4.37911 0.5894959,1.17899 0.5894959,1.34742 -4.3791124,0 -6.7370957,-1.8527 -2.27377,-1.8527 -2.27377,-5.97917 0,-5.72653 4.2948985,-10.86357 4.2948987,-5.13703 11.4530631,-8.25294 7.2423782,-3.11591 15.5795344,-3.11591 11.537277,0 17.011167,6.82131 5.473891,6.82131 5.473891,17.43224 0,9.60036 -3.284335,18.94808 -3.20012,9.26351 -8.589797,15.15846 -5.389677,5.89496 -11.453063,5.89496 z"
         id="path414" />
      <path
         d="m 53.526973,165.38387 q -6.231814,0 -9.684575,-3.20012 -3.452762,-3.28434 -3.452762,-10.18986 0,-5.81075 2.27377,-12.80048 2.27377,-6.98974 7.410805,-12.04256 5.137036,-5.13704 13.053124,-5.13704 9.263507,0 9.263507,8.08452 0,4.71597 -2.694839,8.67401 -2.694838,3.95804 -7.158164,6.40024 -4.463326,2.35798 -9.516148,2.69484 -0.168427,2.52641 -0.168427,3.36855 0,4.12647 1.431632,5.64231 1.431633,1.43164 4.631754,1.43164 4.54754,0 7.74766,-2.10535 3.284334,-2.10534 7.158165,-6.40024 h 2.863265 q -9.34772,15.57954 -23.158767,15.57954 z m 0.168428,-21.55871 q 3.115906,-0.16843 5.894958,-2.18956 2.863266,-2.02112 4.54754,-5.13703 1.768488,-3.11591 1.768488,-6.56867 0,-3.45276 -2.105343,-3.45276 -3.031693,0 -5.979172,5.30546 -2.863266,5.30547 -4.126471,12.04256 z"
         id="path416" />
      <path
         d="m 83.422739,165.38387 q -4.042258,0 -6.82131,-1.51585 -2.779052,-1.60006 -4.126471,-4.04226 -1.347419,-2.52641 -1.347419,-5.22125 0,-2.77905 1.347419,-4.80018 1.263206,-2.10534 3.115907,-3.03169 3.284334,-5.89496 5.726531,-11.87413 2.442198,-6.06339 4.631754,-13.05312 l 12.463627,-1.68428 q 0.421069,10.77935 1.431633,23.3272 0.42107,5.05282 0.42107,7.32659 0,1.93691 -0.336856,3.20012 3.958046,-2.27377 6.063386,-4.21069 h 3.53698 q -5.38968,6.23182 -12.8847,10.52672 -2.442198,2.61062 -6.063387,3.87383 -3.536975,1.17899 -7.158164,1.17899 z m -2.694838,-6.65288 q 3.115906,0 5.221249,-1.85271 2.105342,-1.8527 2.105342,-5.97917 0,-2.52641 -0.505282,-7.07395 -0.842137,-9.60036 -1.094778,-12.8847 -2.021129,6.65289 -6.82131,15.91639 1.936916,1.01057 1.936916,2.94748 0,1.60006 -1.094779,2.86327 -1.010564,1.2632 -2.610624,1.2632 -1.768488,0 -2.27377,-1.09477 0,3.03169 1.178992,4.46332 1.263205,1.43164 3.958044,1.43164 z"
         id="path418" />
      <path
         d="m 120.0557,118.2242 q -2.77906,0 -4.71597,-1.93692 -1.93692,-1.93691 -1.93692,-4.71597 0,-2.77905 1.93692,-4.71596 1.93691,-2.02113 4.71597,-2.02113 2.77905,0 4.71596,2.02113 2.02113,1.93691 2.02113,4.71596 0,2.77906 -2.02113,4.71597 -1.93691,1.93692 -4.71596,1.93692 z m -5.72653,47.15967 q -4.04226,0 -6.56867,-2.52641 -2.4422,-2.52641 -2.4422,-7.57924 0,-2.10534 0.67371,-5.47389 l 5.72653,-27.03259 h 12.12677 l -6.06338,28.63265 q -0.33686,1.26321 -0.33686,2.69484 0,1.68428 0.75793,2.4422 0.84213,0.67371 2.69483,0.67371 2.4422,0 4.54754,-2.02113 2.10535,-2.10534 3.0317,-5.38968 h 3.53697 q -3.1159,9.09508 -8.0003,12.37942 -4.88439,3.20012 -9.68457,3.20012 z"
         id="path420" />
      <path
         d="m 143.38276,185.93201 q -4.04226,0 -6.7371,-2.10534 -2.69484,-2.10534 -2.69484,-6.06339 0,-4.80018 3.87383,-7.74766 3.87383,-2.86326 9.85301,-4.80018 l 1.01056,-4.46333 q -4.2949,4.63176 -10.10564,4.63176 -4.80018,0 -8.0003,-3.28434 -3.20012,-3.28433 -3.20012,-10.27407 0,-6.23181 2.44219,-13.05312 2.52641,-6.90552 7.41081,-11.62149 4.96861,-4.80018 11.78992,-4.80018 3.45276,0 5.13703,1.17899 1.68428,1.17899 1.68428,3.11591 v 0.50528 l 0.92635,-4.37911 h 12.12677 l -8.33716,39.07515 q 4.04226,-1.34742 6.48446,-4.04225 2.4422,-2.69484 4.12647,-8.00031 h 3.53697 q -2.27377,7.49502 -6.1476,11.032 -3.87383,3.45276 -8.75822,4.71597 l -1.26321,6.06338 q -1.68427,8.16873 -5.81074,11.20042 -4.12647,3.11591 -9.34772,3.11591 z m 0.67371,-28.71687 q 1.93691,0 3.95804,-1.76849 2.02113,-1.76849 2.77905,-4.80018 l 4.2949,-19.95865 q 0,-1.01056 -0.84213,-2.02112 -0.84214,-1.09478 -2.61063,-1.09478 -3.36855,0 -6.06339,3.95804 -2.69483,3.87383 -4.21068,9.43194 -1.51585,5.47389 -1.51585,9.68457 0,4.21069 1.17899,5.38968 1.26321,1.17899 3.0317,1.17899 z m -2.61063,22.1482 q 1.43164,0 2.77906,-1.93691 1.34741,-1.93692 2.10534,-5.55811 l 0.50528,-2.44219 q -8.25294,3.03169 -8.25294,7.15816 0,1.09478 0.75792,1.93692 0.75792,0.84213 2.10534,0.84213 z"
         id="path422" />
      <path
         d="m 200.14278,165.38387 q -4.46333,0 -6.48445,-2.69484 -2.02113,-2.69484 -2.02113,-6.82131 0,-1.76849 0.42107,-3.95804 0.42106,-2.27377 0.84213,-4.37912 0.50528,-2.10534 0.67371,-2.69483 0.67371,-2.94748 1.26321,-5.81075 0.58949,-2.86327 0.58949,-4.63175 0,-4.2949 -3.03169,-4.2949 -2.18956,0 -3.87383,2.18955 -1.68427,2.10535 -2.69484,5.55811 l -5.72653,27.0326 h -12.12677 l 8.92665,-42.10685 h 12.12677 l -0.92635,4.37911 q 4.21069,-4.71597 9.853,-4.71597 4.2949,0 6.82131,2.35798 2.52642,2.35799 2.52642,7.15817 0,2.4422 -0.5895,5.47389 -0.5895,2.94748 -1.68427,7.24238 -0.67371,2.61062 -1.26321,5.13703 -0.50528,2.4422 -0.50528,3.87383 0,1.68428 0.75792,2.61063 0.75792,0.92635 2.61063,0.92635 2.02112,0 2.77905,-0.50528 -0.50528,4.2949 -3.11591,6.48445 -2.52641,2.18956 -6.1476,2.18956 z"
         id="path424" />
    </g>
    <g
       aria-label="Division of"
       id="text839"
       style="font-size:32.3404px;line-height:1.25;letter-spacing:1.22086px;fill:#ffffff;stroke-width:0.808512">
      <path
         d="m 33.36128,64.397208 q 3.589784,0 6.274037,1.390638 2.716594,1.358297 4.171912,3.945529 1.487658,2.554891 1.487658,5.982974 0,3.428082 -1.487658,5.950633 -1.455318,2.522552 -4.171912,3.880848 -2.684253,1.325957 -6.274037,1.325957 H 26.020009 V 64.397208 Z m 0,19.468922 q 3.945529,0 6.047655,-2.134467 2.102126,-2.134466 2.102126,-6.015314 0,-3.913189 -2.102126,-6.112336 -2.102126,-2.199147 -6.047655,-2.199147 H 29.706814 V 83.86613 Z"
         style="font-weight:500;font-family:Poppins;-inkscape-font-specification:'Poppins Medium';letter-spacing:0.808512px"
         id="path427" />
      <path
         d="m 51.633596,66.693377 q -1.002552,0 -1.6817,-0.679149 -0.679149,-0.679148 -0.679149,-1.6817 0,-1.002553 0.679149,-1.681701 0.679148,-0.679149 1.6817,-0.679149 0.970212,0 1.649361,0.679149 0.679148,0.679148 0.679148,1.681701 0,1.002552 -0.679148,1.6817 -0.679149,0.679149 -1.649361,0.679149 z m 1.811063,2.360849 V 86.873787 H 49.757853 V 69.054226 Z"
         style="font-weight:500;font-family:Poppins;-inkscape-font-specification:'Poppins Medium';letter-spacing:0.808512px"
         id="path429" />
      <path
         d="m 65.992735,83.575066 5.045102,-14.52084 h 3.913189 L 68.159542,86.873787 H 63.761247 L 57.002104,69.054226 h 3.945528 z"
         style="font-weight:500;font-family:Poppins;-inkscape-font-specification:'Poppins Medium';letter-spacing:0.808512px"
         id="path431" />
      <path
         d="m 80.4165,66.693377 q -1.002552,0 -1.681701,-0.679149 -0.679148,-0.679148 -0.679148,-1.6817 0,-1.002553 0.679148,-1.681701 0.679149,-0.679149 1.681701,-0.679149 0.970212,0 1.64936,0.679149 0.679149,0.679148 0.679149,1.681701 0,1.002552 -0.679149,1.6817 -0.679148,0.679149 -1.64936,0.679149 z m 1.811062,2.360849 V 86.873787 H 78.540757 V 69.054226 Z"
         style="font-weight:500;font-family:Poppins;-inkscape-font-specification:'Poppins Medium';letter-spacing:0.808512px"
         id="path433" />
      <path
         d="m 94.355211,87.164851 q -2.102126,0 -3.783826,-0.74383 -1.649361,-0.776169 -2.619573,-2.069785 -0.970212,-1.325957 -1.034893,-2.942977 h 3.816168 q 0.09702,1.131914 1.067233,1.908084 1.002552,0.743829 2.490211,0.743829 1.552339,0 2.393189,-0.582127 0.873191,-0.614468 0.873191,-1.552339 0,-1.002553 -0.970212,-1.487659 -0.937872,-0.485106 -3.007657,-1.067233 -2.005105,-0.549787 -3.266381,-1.067233 -1.261275,-0.517447 -2.199147,-1.58468 -0.905531,-1.067233 -0.905531,-2.813615 0,-1.422977 0.84085,-2.587232 0.840851,-1.196595 2.39319,-1.875743 1.58468,-0.679148 3.622125,-0.679148 3.039998,0 4.8834,1.552339 1.875742,1.519999 2.005102,4.171911 h -3.686802 q -0.09702,-1.196594 -0.970213,-1.908083 -0.87319,-0.711489 -2.360849,-0.711489 -1.455318,0 -2.231487,0.549787 -0.77617,0.549787 -0.77617,1.455318 0,0.711489 0.517446,1.196595 0.517447,0.485106 1.261276,0.776169 0.743829,0.258723 2.199147,0.679149 1.940424,0.517446 3.16936,1.067233 1.261275,0.517446 2.166802,1.552339 0.90554,1.034893 0.93788,2.748934 0,1.519999 -0.84085,2.716594 -0.840855,1.196595 -2.393194,1.875743 -1.519999,0.679149 -3.589785,0.679149 z"
         style="font-weight:500;font-family:Poppins;-inkscape-font-specification:'Poppins Medium';letter-spacing:0.808512px"
         id="path435" />
      <path
         d="m 107.84111,66.693377 q -1.00255,0 -1.6817,-0.679149 -0.67915,-0.679148 -0.67915,-1.6817 0,-1.002553 0.67915,-1.681701 0.67915,-0.679149 1.6817,-0.679149 0.97021,0 1.64936,0.679149 0.67915,0.679148 0.67915,1.681701 0,1.002552 -0.67915,1.6817 -0.67915,0.679149 -1.64936,0.679149 z m 1.81106,2.360849 v 17.819561 h -3.6868 V 69.054226 Z"
         style="font-weight:500;font-family:Poppins;-inkscape-font-specification:'Poppins Medium';letter-spacing:0.808512px"
         id="path437" />
      <path
         d="m 123.0411,87.164851 q -2.52255,0 -4.55999,-1.131914 -2.03745,-1.164255 -3.2017,-3.234041 -1.16426,-2.102126 -1.16426,-4.85106 0,-2.716593 1.1966,-4.818719 1.19659,-2.102126 3.26638,-3.23404 2.06979,-1.131914 4.62468,-1.131914 2.55489,0 4.62467,1.131914 2.06979,1.131914 3.26638,3.23404 1.1966,2.102126 1.1966,4.818719 0,2.716594 -1.22894,4.81872 -1.22893,2.102126 -3.3634,3.266381 -2.10212,1.131914 -4.65702,1.131914 z m 0,-3.2017 q 1.42298,0 2.65192,-0.679149 1.26127,-0.679148 2.03744,-2.037445 0.77617,-1.358297 0.77617,-3.298721 0,-1.940424 -0.74383,-3.26638 -0.74383,-1.358297 -1.97276,-2.037445 -1.22894,-0.679149 -2.65191,-0.679149 -1.42298,0 -2.65192,0.679149 -1.19659,0.679148 -1.90808,2.037445 -0.71149,1.325956 -0.71149,3.26638 0,2.878296 1.45532,4.462976 1.48766,1.552339 3.71914,1.552339 z"
         style="font-weight:500;font-family:Poppins;-inkscape-font-specification:'Poppins Medium';letter-spacing:0.808512px"
         id="path439" />
      <path
         d="m 145.74402,68.763163 q 2.10212,0 3.75148,0.87319 1.6817,0.873191 2.61957,2.587232 0.93788,1.714042 0.93788,4.139572 v 10.51063 h -3.65447 v -9.960843 q 0,-2.39319 -1.19659,-3.654466 -1.1966,-1.293616 -3.26638,-1.293616 -2.06979,0 -3.29873,1.293616 -1.19659,1.261276 -1.19659,3.654466 v 9.960843 h -3.68681 V 69.054226 h 3.68681 v 2.037445 q 0.90553,-1.099573 2.29617,-1.714041 1.42298,-0.614467 3.00766,-0.614467 z"
         style="font-weight:500;font-family:Poppins;-inkscape-font-specification:'Poppins Medium';letter-spacing:0.808512px"
         id="path441" />
      <path
         d="m 175.49708,87.164851 q -2.52256,0 -4.56,-1.131914 -2.03745,-1.164255 -3.2017,-3.234041 -1.16425,-2.102126 -1.16425,-4.85106 0,-2.716593 1.19659,-4.818719 1.19659,-2.102126 3.26638,-3.23404 2.06979,-1.131914 4.62468,-1.131914 2.55489,0 4.62467,1.131914 2.06979,1.131914 3.26639,3.23404 1.19659,2.102126 1.19659,4.818719 0,2.716594 -1.22894,4.81872 -1.22893,2.102126 -3.3634,3.266381 -2.10212,1.131914 -4.65701,1.131914 z m 0,-3.2017 q 1.42297,0 2.65191,-0.679149 1.26127,-0.679148 2.03744,-2.037445 0.77617,-1.358297 0.77617,-3.298721 0,-1.940424 -0.74383,-3.26638 -0.74383,-1.358297 -1.97276,-2.037445 -1.22894,-0.679149 -2.65191,-0.679149 -1.42298,0 -2.65192,0.679149 -1.19659,0.679148 -1.90808,2.037445 -0.71149,1.325956 -0.71149,3.26638 0,2.878296 1.45532,4.462976 1.48766,1.552339 3.71915,1.552339 z"
         style="font-weight:500;font-family:Poppins;-inkscape-font-specification:'Poppins Medium';letter-spacing:0.808512px"
         id="path443" />
      <path
         d="m 196.68,72.061883 h -3.29872 v 14.811904 h -3.71914 V 72.061883 h -2.10213 v -3.007657 h 2.10213 v -1.261275 q 0,-3.072339 1.61702,-4.462976 1.64936,-1.422977 5.14212,-1.422977 v 3.072338 q -1.6817,0 -2.36085,0.646808 -0.67915,0.614467 -0.67915,2.166807 v 1.261275 H 196.68 Z"
         style="font-weight:500;font-family:Poppins;-inkscape-font-specification:'Poppins Medium';letter-spacing:0.808512px"
         id="path445" />
    </g>
  </g>
</svg>
