<?xml version="1.0" encoding="UTF-8" standalone="no"?>
<svg
   id="Layer_1"
   data-name="Layer 1"
   viewBox="0 0 511.99999 512"
   version="1.1"
   width="512"
   height="512"
   xmlns="http://www.w3.org/2000/svg"
   xmlns:svg="http://www.w3.org/2000/svg">
  <defs
     id="defs150">
    <style
       id="style148">.cls-1{fill:#e67023;}.cls-2,.cls-6,.cls-7{fill:#231f20;}.cls-3{fill:#9a100c;}.cls-10,.cls-4,.cls-5{fill:none;}.cls-10,.cls-4,.cls-5,.cls-6,.cls-7{stroke:#231f20;stroke-miterlimit:10;}.cls-5,.cls-7{stroke-width:3px;}.cls-10,.cls-6{stroke-width:2px;}.cls-8{fill:#10a3c8;}.cls-9{isolation:isolate;}</style>
  </defs>
  <g
     id="layer5"
     transform="translate(0,-1147.8125)">
    <g
       id="g14454"
       transform="translate(-1.3600015e-7,581.59133)">
      <g
         id="g14380"
         transform="translate(0.480004,566.22117)">
        <polygon
           class="cls-1"
           points="146.29,69.49 128.66,94.11 118.28,94.11 118.28,45.97 128.6,45.97 "
           id="polygon14340"
           style="fill:#e67023;stroke-width:1.14695"
           transform="matrix(0.87188055,0,0,0.87188055,32.737083,185.38639)" />
        <polygon
           class="cls-2"
           points="292.16,97.39 291.83,103.45 278.02,109.62 277.26,103.59 "
           id="polygon14342"
           style="fill:#008000;stroke-width:1.14695"
           transform="matrix(0.87188055,0,0,0.87188055,32.737083,185.38639)" />
        <polygon
           class="cls-3"
           points="157.29,97.2 157.29,105.08 181.5,118.77 181.5,111.92 "
           id="polygon14344"
           style="fill:#9a100c;stroke-width:1.14695"
           transform="matrix(0.87188055,0,0,0.87188055,32.737083,185.38639)" />
        <path
           class="cls-4"
           d="M 271.86776,200.99305"
           id="path14346"
           style="fill:none;stroke:#231f20;stroke-width:1;stroke-miterlimit:10" />
        <rect
           class="cls-2"
           x="271.78928"
           y="197.47937"
           width="16.469824"
           height="3.5049598"
           id="rect14348"
           style="fill:#ffffff;stroke-width:1" />
        <polyline
           class="cls-5"
           points="42.78 84.64 1.5 84.52 1.5 112.08 86.26 112.08 100.46 112.08 152.4 112.41 152.4 126.93 184.24 126.93 197.96 126.93 197.96 94.75 241.07 94.75 261.16 94.75 261.16 66.49 261.16 58.07"
           id="polyline14350"
           transform="matrix(0.87188055,0,0,0.87188055,32.737083,185.38639)"
           style="fill:none;stroke:#ffffff;stroke-width:3px;stroke-miterlimit:10" />
        <polyline
           class="cls-6"
           points="261.88 58.84 256.67 54.85 256.33 52.83 250.55 48.4 248.1 51.6 253.82 55.98 255.41 56.26 260.82 60.22"
           id="polyline14352"
           transform="matrix(0.87188055,0,0,0.87188055,32.737083,185.38639)"
           style="fill:#ffffff;stroke:#ffffff;stroke-width:2px;stroke-miterlimit:10" />
        <polygon
           class="cls-2"
           points="296.83,49.99 296.83,24.7 293.17,24.66 293.13,18.99 300.53,18.99 300.53,49.99 "
           id="polygon14354"
           style="fill:#ffffff;stroke-width:1.14695"
           transform="matrix(0.87188055,0,0,0.87188055,32.737083,185.38639)" />
        <polyline
           class="cls-2"
           points="276.53 13.27 276.53 8.83 290.78 8.83 290.78 13.27"
           id="polyline14356"
           style="fill:#ffffff;stroke-width:1.14695"
           transform="matrix(0.87188055,0,0,0.87188055,32.737083,185.38639)" />
        <polygon
           class="cls-7"
           points="46.42,80.99 57.52,89.14 24.98,89.14 29.11,85.63 33.75,81.22 "
           id="polygon14358"
           transform="matrix(0.87188055,0,0,0.87188055,32.737083,185.38639)"
           style="fill:#ffffff;stroke:none;stroke-width:3px;stroke-miterlimit:10" />
        <path
           class="cls-2"
           d="M 276.45385,288.93964"
           id="path14360"
           style="fill:#231f20;stroke-width:1" />
        <polyline
           class="cls-3"
           points="235.66 13.87 244.07 13.87 262.29 38.62 241.07 67.32 235.66 67.52"
           id="polyline14362"
           style="fill:#9a100c;stroke-width:1.14695"
           transform="matrix(0.87188055,0,0,0.87188055,32.737083,185.38639)" />
        <polyline
           class="cls-1"
           points="147.28 13.87 129.33 31.82 124.25 31.82 141.97 13.87"
           id="polyline14364"
           style="fill:#e67023;stroke-width:1.14695"
           transform="matrix(0.87188055,0,0,0.87188055,32.737083,185.38639)" />
        <path
           class="cls-2"
           d="m 157.65141,245.99953 -15.89438,21.44826 H 60.672136 L 76.19161,251.75394 h 53.18471 l 4.97844,-5.78057 -5.09178,-6.27754 H 76.060828 L 60.637261,218.97123 76.566518,197.4445 h 81.084892 l -15.69385,15.69385 H 88.88619 l -5.100501,5.9811 5.100501,6.37345 h 53.35909 z"
           id="path14366"
           style="fill:#ffffff;stroke-width:1" />
        <path
           class="cls-2"
           d="m 258.78955,219.06714 -18.48386,25.02297 H 190.9834 v 35.4681 l -21.12566,-12.12786 v -69.95098 h 73.06359 z m -21.66623,1.36885 -5.519,-7.29764 H 190.9834 v 15.05738 h 40.54245 z"
           id="path14368"
           style="fill:#ffffff;stroke-width:1" />
        <path
           class="cls-2"
           d="m 271.69339,201.95212 c 0.0872,24.63934 0,48.3545 0.0523,72.99384 0.98522,-0.40106 9.34656,-4.04553 14.01984,-5.92879 l 2.61564,-1.04625 v -66.0188 z"
           id="path14370"
           style="fill:#ffffff;stroke-width:1" />
        <path
           class="cls-2"
           d="m 386.15386,251.78881 -15.69385,15.69385 h -65.39104 v -69.88994 l 21.10823,-12.20633 v 66.3937 z"
           id="path14372"
           style="fill:#ffffff;stroke-width:1" />
        <path
           class="cls-2"
           d="m 473.03676,251.78881 -15.69385,15.69385 h -65.39104 v -69.88994 l 21.11695,-12.20633 v 66.3937 z"
           id="path14374"
           style="fill:#ffffff;stroke-width:1" />
        <polyline
           class="cls-8"
           points="511.04 76.16 493.08 94.11 485.78 94.11 504.41 76.16"
           id="polyline14376"
           style="fill:#10a3c8;stroke-width:1.14695"
           transform="matrix(0.87188055,0,0,0.87188055,32.737083,185.38639)" />
        <polyline
           class="cls-8"
           points="411.47 76.16 393.52 94.11 386.22 94.11 404.84 76.16"
           id="polyline14378"
           style="fill:#10a3c8;stroke-width:1.14695"
           transform="matrix(0.87188055,0,0,0.87188055,32.737083,185.38639)" />
      </g>
      <g
         class="cls-9"
         id="g14450"
         style="isolation:isolate;fill:#ffffff;stroke-width:1.14695"
         transform="matrix(0.87188055,0,0,0.87188055,33.217087,751.60756)">
        <g
           class="cls-9"
           id="g14448"
           style="isolation:isolate;fill:#ffffff;stroke-width:1.14695">
          <path
             class="cls-2"
             d="m 89.22,464.12 a 1.25,1.25 0 0 1 -0.55,-0.14 1.92,1.92 0 0 1 -0.86,-0.86 1.26,1.26 0 0 1 -0.14,-0.57 v -2.91 a 1.26,1.26 0 0 1 0.14,-0.57 1.82,1.82 0 0 1 0.36,-0.51 1.8,1.8 0 0 1 0.5,-0.35 1.25,1.25 0 0 1 0.55,-0.14 h 10.25 v 2.61 h -9 v 1.06 h 7.48 a 1.28,1.28 0 0 1 0.55,0.14 2.15,2.15 0 0 1 0.5,0.35 1.82,1.82 0 0 1 0.36,0.51 1.25,1.25 0 0 1 0.13,0.57 v 2.91 a 1.31,1.31 0 0 1 -0.13,0.57 1.77,1.77 0 0 1 -0.36,0.5 1.92,1.92 0 0 1 -0.5,0.36 1.28,1.28 0 0 1 -0.55,0.14 H 86.57 v -2.61 h 10.12 v -1.06 z"
             transform="translate(-54.73,-309.67)"
             id="path14382"
             style="fill:#ffffff;stroke-width:1.14695" />
          <path
             class="cls-2"
             d="m 104.47,467.79 h -2.8 v -9.72 h 2.8 z"
             transform="translate(-54.73,-309.67)"
             id="path14384"
             style="fill:#ffffff;stroke-width:1.14695" />
          <path
             class="cls-2"
             d="m 112.25,460.91 2.5,-2.84 h 3.45 l -4.2,4.87 4.21,4.85 h -3.45 l -2.5,-2.84 -2.47,2.84 h -3.45 l 4.19,-4.85 -4.19,-4.87 h 3.45 z"
             transform="translate(-54.73,-309.67)"
             id="path14386"
             style="fill:#ffffff;stroke-width:1.14695" />
          <path
             class="cls-2"
             d="m 120.06,458.07 h 11.54 v 2.61 h -4.38 v 7.11 h -2.78 v -7.11 h -4.38 z"
             transform="translate(-54.73,-309.67)"
             id="path14388"
             style="fill:#ffffff;stroke-width:1.14695" />
          <path
             class="cls-2"
             d="m 134.8,467.65 a 1.64,1.64 0 0 1 -0.5,-0.36 1.77,1.77 0 0 1 -0.36,-0.5 1.33,1.33 0 0 1 -0.14,-0.57 v -6.58 a 1.26,1.26 0 0 1 0.14,-0.57 1.82,1.82 0 0 1 0.36,-0.51 1.8,1.8 0 0 1 0.5,-0.35 1.25,1.25 0 0 1 0.55,-0.14 h 9.34 v 2.61 h -8.11 v 1.06 h 8.1 v 2.38 h -8.1 v 1.06 h 8.11 v 2.61 h -9.34 a 1.25,1.25 0 0 1 -0.55,-0.14 z"
             transform="translate(-54.73,-309.67)"
             id="path14390"
             style="fill:#ffffff;stroke-width:1.14695" />
          <path
             class="cls-2"
             d="m 147.89,467.65 a 1.92,1.92 0 0 1 -0.86,-0.86 1.31,1.31 0 0 1 -0.13,-0.57 v -6.58 a 1.25,1.25 0 0 1 0.13,-0.57 1.82,1.82 0 0 1 0.36,-0.51 2,2 0 0 1 0.5,-0.35 1.28,1.28 0 0 1 0.55,-0.14 h 9.35 v 2.61 h -8.11 v 1.06 h 8.09 v 2.38 h -8.09 v 1.06 h 8.11 v 2.61 h -9.35 a 1.28,1.28 0 0 1 -0.55,-0.14 z"
             transform="translate(-54.73,-309.67)"
             id="path14392"
             style="fill:#ffffff;stroke-width:1.14695" />
          <path
             class="cls-2"
             d="m 162.21,458.09 a 2.06,2.06 0 0 1 0.84,0.4 16.12,16.12 0 0 1 1.32,1.08 c 0.54,0.48 1.21,1.1 2,1.85 0.79,0.75 1.75,1.66 2.87,2.72 v -6.07 H 172 v 8.5 a 0.8,0.8 0 0 1 -0.13,0.44 1.36,1.36 0 0 1 -0.34,0.39 1.81,1.81 0 0 1 -1.1,0.39 h -0.54 a 0.14,0.14 0 0 1 -0.09,0 2.1,2.1 0 0 1 -0.84,-0.41 14.51,14.51 0 0 1 -1.37,-1.1 c -0.56,-0.49 -1.24,-1.11 -2,-1.86 -0.76,-0.75 -1.73,-1.65 -2.81,-2.7 v 6.09 H 160 v -8.5 a 0.94,0.94 0 0 1 0.12,-0.44 1.56,1.56 0 0 1 0.34,-0.39 1.62,1.62 0 0 1 0.5,-0.28 1.84,1.84 0 0 1 0.62,-0.11 h 0.52 a 0.22,0.22 0 0 1 0.11,0 z"
             transform="translate(-54.73,-309.67)"
             id="path14394"
             style="fill:#ffffff;stroke-width:1.14695" />
          <path
             class="cls-2"
             d="m 190.65,461.78 v -1.1 h -8.49 v -2.61 h 9.73 a 1.28,1.28 0 0 1 0.55,0.14 2.15,2.15 0 0 1 0.5,0.35 1.82,1.82 0 0 1 0.36,0.51 1.25,1.25 0 0 1 0.13,0.57 v 2.95 a 1.31,1.31 0 0 1 -0.13,0.57 1.77,1.77 0 0 1 -0.36,0.5 1.92,1.92 0 0 1 -0.5,0.36 1.28,1.28 0 0 1 -0.55,0.14 h -6.95 v 3.63 h -2.78 v -6 z"
             transform="translate(-54.73,-309.67)"
             id="path14396"
             style="fill:#ffffff;stroke-width:1.14695" />
          <path
             class="cls-2"
             d="m 204.13,461.74 v -1.06 h -8.5 v -2.61 h 9.74 a 1.28,1.28 0 0 1 0.55,0.14 2.15,2.15 0 0 1 0.5,0.35 1.82,1.82 0 0 1 0.36,0.51 1.25,1.25 0 0 1 0.13,0.57 v 2.91 a 1.25,1.25 0 0 1 -0.13,0.57 1.64,1.64 0 0 1 -0.36,0.5 1.92,1.92 0 0 1 -0.5,0.36 1.28,1.28 0 0 1 -0.55,0.14 h -0.8 l 5.47,7.53 h -3.13 l -5.66,-7.53 h -2.84 v 3.67 h -2.78 v -6.05 z"
             transform="translate(-54.73,-309.67)"
             id="path14398"
             style="fill:#ffffff;stroke-width:1.14695" />
          <path
             class="cls-2"
             d="m 220.13,458.21 a 2.15,2.15 0 0 1 0.5,0.35 1.82,1.82 0 0 1 0.36,0.51 1.25,1.25 0 0 1 0.13,0.57 v 6.58 a 1.31,1.31 0 0 1 -0.13,0.57 1.77,1.77 0 0 1 -0.36,0.5 1.92,1.92 0 0 1 -0.5,0.36 1.28,1.28 0 0 1 -0.55,0.14 h -8.94 a 1.25,1.25 0 0 1 -0.55,-0.14 1.64,1.64 0 0 1 -0.5,-0.36 1.77,1.77 0 0 1 -0.36,-0.5 1.33,1.33 0 0 1 -0.14,-0.57 v -6.58 a 1.26,1.26 0 0 1 0.14,-0.57 1.82,1.82 0 0 1 0.36,-0.51 1.8,1.8 0 0 1 0.5,-0.35 1.25,1.25 0 0 1 0.55,-0.14 h 8.94 a 1.28,1.28 0 0 1 0.55,0.14 z m -8.26,2.47 v 4.5 h 6.47 v -4.5 z"
             transform="translate(-54.73,-309.67)"
             id="path14400"
             style="fill:#ffffff;stroke-width:1.14695" />
          <path
             class="cls-2"
             d="m 227.9,464.12 v -2.38 h 5.87 a 1.28,1.28 0 0 1 0.55,0.14 1.8,1.8 0 0 1 0.5,0.35 1.82,1.82 0 0 1 0.36,0.51 1.26,1.26 0 0 1 0.14,0.57 v 2.91 a 1.33,1.33 0 0 1 -0.14,0.57 1.77,1.77 0 0 1 -0.36,0.5 1.64,1.64 0 0 1 -0.5,0.36 1.28,1.28 0 0 1 -0.55,0.14 h -8.9 a 1.28,1.28 0 0 1 -0.55,-0.14 1.64,1.64 0 0 1 -0.5,-0.36 1.77,1.77 0 0 1 -0.36,-0.5 1.33,1.33 0 0 1 -0.14,-0.57 v -6.58 a 1.26,1.26 0 0 1 0.14,-0.57 1.82,1.82 0 0 1 0.36,-0.51 1.8,1.8 0 0 1 0.5,-0.35 1.28,1.28 0 0 1 0.55,-0.14 h 10.45 v 2.61 h -9.22 v 4.5 h 6.44 v -1.06 z"
             transform="translate(-54.73,-309.67)"
             id="path14402"
             style="fill:#ffffff;stroke-width:1.14695" />
          <path
             class="cls-2"
             d="m 246,461.74 v -1.06 h -8.49 v -2.61 h 9.73 a 1.28,1.28 0 0 1 0.55,0.14 2,2 0 0 1 0.5,0.35 1.82,1.82 0 0 1 0.36,0.51 1.25,1.25 0 0 1 0.13,0.57 v 2.91 a 1.25,1.25 0 0 1 -0.13,0.57 1.64,1.64 0 0 1 -0.36,0.5 1.77,1.77 0 0 1 -0.5,0.36 1.28,1.28 0 0 1 -0.55,0.14 h -0.79 l 2.66,3.67 H 246 l -2.84,-3.67 h -2.86 v 3.67 h -2.78 v -6.05 z"
             transform="translate(-54.73,-309.67)"
             id="path14404"
             style="fill:#ffffff;stroke-width:1.14695" />
          <path
             class="cls-2"
             d="m 253.72,467.79 h -3.09 l 4,-8.33 a 2.12,2.12 0 0 1 2,-1.39 h 1.23 a 1.53,1.53 0 0 1 1.05,0.35 3.12,3.12 0 0 1 0.73,1 l 4,8.33 h -3.14 l -0.78,-1.63 h -5.23 z m 3.4,-6.74 -1.49,2.8 h 3 z"
             transform="translate(-54.73,-309.67)"
             id="path14406"
             style="fill:#ffffff;stroke-width:1.14695" />
          <path
             class="cls-2"
             d="m 265.44,467.79 v -8.5 a 0.94,0.94 0 0 1 0.12,-0.44 1.56,1.56 0 0 1 0.34,-0.39 1.62,1.62 0 0 1 0.5,-0.28 1.84,1.84 0 0 1 0.62,-0.11 h 0.76 a 2.58,2.58 0 0 1 1,0.39 2.27,2.27 0 0 1 0.78,0.79 l 3.09,5.1 3.09,-5.1 a 2.27,2.27 0 0 1 0.78,-0.79 2.57,2.57 0 0 1 1,-0.39 h 0.75 a 1.84,1.84 0 0 1 0.62,0.11 1.62,1.62 0 0 1 0.5,0.28 1.56,1.56 0 0 1 0.34,0.39 0.94,0.94 0 0 1 0.12,0.44 v 8.5 h -2.75 v -5.43 c -0.31,0.54 -0.61,1.05 -0.92,1.52 -0.31,0.47 -0.58,0.92 -0.85,1.31 l -0.71,1 -0.51,0.74 a 1.92,1.92 0 0 1 -0.72,0.68 1.45,1.45 0 0 1 -0.52,0.14 h -0.42 a 1.27,1.27 0 0 1 -0.58,-0.14 2.23,2.23 0 0 1 -0.66,-0.68 c -0.28,-0.37 -0.69,-1 -1.23,-1.76 -0.54,-0.76 -1.13,-1.76 -1.76,-2.85 v 5.43 z"
             transform="translate(-54.73,-309.67)"
             id="path14408"
             style="fill:#ffffff;stroke-width:1.14695" />
          <path
             class="cls-2"
             d="m 282.08,467.79 v -8.5 a 1,1 0 0 1 0.13,-0.44 1.39,1.39 0 0 1 0.34,-0.39 1.62,1.62 0 0 1 0.5,-0.28 1.8,1.8 0 0 1 0.62,-0.11 h 0.75 a 2.47,2.47 0 0 1 1,0.39 2.39,2.39 0 0 1 0.79,0.79 l 3.09,5.1 3.09,-5.1 a 2.27,2.27 0 0 1 0.78,-0.79 2.52,2.52 0 0 1 1,-0.39 h 0.75 a 1.8,1.8 0 0 1 0.62,0.11 1.51,1.51 0 0 1 0.5,0.28 1.24,1.24 0 0 1 0.34,0.39 0.85,0.85 0 0 1 0.13,0.44 v 8.5 h -2.78 v -5.43 c -0.31,0.54 -0.62,1.05 -0.92,1.52 -0.3,0.47 -0.59,0.92 -0.85,1.31 l -0.71,1 c -0.22,0.3 -0.39,0.55 -0.52,0.74 a 1.84,1.84 0 0 1 -0.71,0.68 1.5,1.5 0 0 1 -0.52,0.14 h -0.43 a 1.3,1.3 0 0 1 -0.58,-0.14 2.23,2.23 0 0 1 -0.65,-0.68 c -0.29,-0.37 -0.7,-1 -1.24,-1.76 -0.54,-0.76 -1.12,-1.76 -1.76,-2.85 v 5.43 z"
             transform="translate(-54.73,-309.67)"
             id="path14410"
             style="fill:#ffffff;stroke-width:1.14695" />
          <path
             class="cls-2"
             d="m 301.53,467.79 h -2.8 v -9.72 h 2.8 z"
             transform="translate(-54.73,-309.67)"
             id="path14412"
             style="fill:#ffffff;stroke-width:1.14695" />
          <path
             class="cls-2"
             d="m 306,458.09 a 2.06,2.06 0 0 1 0.84,0.4 16.12,16.12 0 0 1 1.32,1.08 c 0.55,0.48 1.21,1.1 2,1.85 0.79,0.75 1.75,1.66 2.87,2.72 v -6.07 h 2.78 v 8.5 a 0.88,0.88 0 0 1 -0.12,0.44 1.76,1.76 0 0 1 -0.34,0.39 1.85,1.85 0 0 1 -0.5,0.28 1.81,1.81 0 0 1 -0.6,0.11 h -0.54 a 0.16,0.16 0 0 1 -0.1,0 2.1,2.1 0 0 1 -0.84,-0.41 15.92,15.92 0 0 1 -1.37,-1.1 c -0.56,-0.49 -1.24,-1.11 -2,-1.86 -0.76,-0.75 -1.73,-1.65 -2.81,-2.7 v 6.09 h -2.78 v -8.5 a 0.85,0.85 0 0 1 0.13,-0.44 1.35,1.35 0 0 1 0.33,-0.39 1.67,1.67 0 0 1 0.51,-0.28 1.78,1.78 0 0 1 0.61,-0.11 h 0.53 a 0.2,0.2 0 0 1 0.08,0 z"
             transform="translate(-54.73,-309.67)"
             id="path14414"
             style="fill:#ffffff;stroke-width:1.14695" />
          <path
             class="cls-2"
             d="m 322.54,464.12 v -2.38 h 5.87 a 1.28,1.28 0 0 1 0.55,0.14 2,2 0 0 1 0.5,0.35 1.82,1.82 0 0 1 0.36,0.51 1.25,1.25 0 0 1 0.13,0.57 v 2.91 a 1.31,1.31 0 0 1 -0.13,0.57 1.92,1.92 0 0 1 -0.86,0.86 1.28,1.28 0 0 1 -0.55,0.14 h -8.9 a 1.25,1.25 0 0 1 -0.55,-0.14 1.64,1.64 0 0 1 -0.5,-0.36 1.77,1.77 0 0 1 -0.36,-0.5 1.33,1.33 0 0 1 -0.14,-0.57 v -6.58 a 1.26,1.26 0 0 1 0.14,-0.57 1.82,1.82 0 0 1 0.36,-0.51 1.8,1.8 0 0 1 0.5,-0.35 1.25,1.25 0 0 1 0.55,-0.14 H 330 v 2.61 h -9.21 v 4.5 h 6.43 v -1.06 z"
             transform="translate(-54.73,-309.67)"
             id="path14416"
             style="fill:#ffffff;stroke-width:1.14695" />
          <path
             class="cls-2"
             d="m 342.83,467.79 h -3.09 l 4,-8.33 a 2.13,2.13 0 0 1 2,-1.39 H 347 a 1.57,1.57 0 0 1 1.05,0.35 3.26,3.26 0 0 1 0.72,1 l 4,8.33 h -3.09 l -0.77,-1.63 h -5.23 z m 3.4,-6.74 -1.48,2.8 h 3 z"
             transform="translate(-54.73,-309.67)"
             id="path14418"
             style="fill:#ffffff;stroke-width:1.14695" />
          <path
             class="cls-2"
             d="m 356.77,458.09 a 2.15,2.15 0 0 1 0.85,0.4 16.12,16.12 0 0 1 1.32,1.08 c 0.54,0.48 1.2,1.1 2,1.85 l 2.86,2.72 v -6.07 h 2.78 v 8.5 a 0.88,0.88 0 0 1 -0.12,0.44 1.54,1.54 0 0 1 -0.34,0.39 1.85,1.85 0 0 1 -0.5,0.28 1.73,1.73 0 0 1 -0.6,0.11 h -0.54 a 0.22,0.22 0 0 1 -0.1,0 2.22,2.22 0 0 1 -0.84,-0.41 15.92,15.92 0 0 1 -1.37,-1.1 c -0.56,-0.49 -1.23,-1.11 -2,-1.86 l -2.81,-2.7 v 6.09 h -2.78 v -8.5 a 1,1 0 0 1 0.13,-0.44 1.39,1.39 0 0 1 0.34,-0.39 1.62,1.62 0 0 1 0.5,-0.28 1.8,1.8 0 0 1 0.62,-0.11 h 0.52 a 0.2,0.2 0 0 1 0.08,0 z"
             transform="translate(-54.73,-309.67)"
             id="path14420"
             style="fill:#ffffff;stroke-width:1.14695" />
          <path
             class="cls-2"
             d="m 368.79,461.74 h 2.78 v 3.44 H 378 v -4.5 h -9.21 v -2.61 h 10.44 a 1.25,1.25 0 0 1 0.55,0.14 1.69,1.69 0 0 1 0.86,0.86 1.26,1.26 0 0 1 0.14,0.57 v 6.58 a 1.33,1.33 0 0 1 -0.14,0.57 2,2 0 0 1 -0.35,0.5 1.82,1.82 0 0 1 -0.51,0.36 1.25,1.25 0 0 1 -0.55,0.14 h -10.44 z"
             transform="translate(-54.73,-309.67)"
             id="path14422"
             style="fill:#ffffff;stroke-width:1.14695" />
          <path
             class="cls-2"
             d="m 393.71,460.68 h -2.79 v -2.61 h 2.79 z m -2.79,1.1 h 2.79 v 6 h -2.79 z"
             transform="translate(-54.73,-309.67)"
             id="path14424"
             style="fill:#ffffff;stroke-width:1.14695" />
          <path
             class="cls-2"
             d="m 398.7,458.07 v 7.11 h 8 v 2.61 h -9.27 a 1.28,1.28 0 0 1 -0.55,-0.14 1.92,1.92 0 0 1 -0.86,-0.86 1.31,1.31 0 0 1 -0.13,-0.57 v -8.15 z"
             transform="translate(-54.73,-309.67)"
             id="path14426"
             style="fill:#ffffff;stroke-width:1.14695" />
          <path
             class="cls-2"
             d="m 411.71,458.07 v 7.11 h 8 v 2.61 h -9.27 a 1.25,1.25 0 0 1 -0.55,-0.14 1.82,1.82 0 0 1 -0.51,-0.36 2,2 0 0 1 -0.35,-0.5 1.33,1.33 0 0 1 -0.14,-0.57 v -8.15 z"
             transform="translate(-54.73,-309.67)"
             id="path14428"
             style="fill:#ffffff;stroke-width:1.14695" />
          <path
             class="cls-2"
             d="m 431.16,465.18 v -7.11 h 2.78 v 8.15 a 1.33,1.33 0 0 1 -0.14,0.57 2,2 0 0 1 -0.35,0.5 1.82,1.82 0 0 1 -0.51,0.36 1.25,1.25 0 0 1 -0.55,0.14 h -8.9 a 1.28,1.28 0 0 1 -0.55,-0.14 1.92,1.92 0 0 1 -0.86,-0.86 1.31,1.31 0 0 1 -0.13,-0.57 v -8.15 h 2.78 v 7.11 z"
             transform="translate(-54.73,-309.67)"
             id="path14430"
             style="fill:#ffffff;stroke-width:1.14695" />
          <path
             class="cls-2"
             d="m 437.68,464.12 a 1.28,1.28 0 0 1 -0.55,-0.14 1.92,1.92 0 0 1 -0.5,-0.36 1.64,1.64 0 0 1 -0.36,-0.5 1.25,1.25 0 0 1 -0.13,-0.57 v -2.91 a 1.25,1.25 0 0 1 0.13,-0.57 1.82,1.82 0 0 1 0.36,-0.51 2.15,2.15 0 0 1 0.5,-0.35 1.28,1.28 0 0 1 0.55,-0.14 h 10.26 v 2.61 h -9 v 1.06 h 7.47 a 1.25,1.25 0 0 1 0.55,0.14 1.8,1.8 0 0 1 0.5,0.35 1.82,1.82 0 0 1 0.36,0.51 1.26,1.26 0 0 1 0.14,0.57 v 2.91 a 1.33,1.33 0 0 1 -0.14,0.57 1.77,1.77 0 0 1 -0.36,0.5 1.64,1.64 0 0 1 -0.5,0.36 1.25,1.25 0 0 1 -0.55,0.14 h -10.27 v -2.61 h 9 v -1.06 z"
             transform="translate(-54.73,-309.67)"
             id="path14432"
             style="fill:#ffffff;stroke-width:1.14695" />
          <path
             class="cls-2"
             d="m 450.14,458.07 h 11.55 v 2.61 h -4.39 v 7.11 h -2.78 v -7.11 h -4.38 z"
             transform="translate(-54.73,-309.67)"
             id="path14434"
             style="fill:#ffffff;stroke-width:1.14695" />
          <path
             class="cls-2"
             d="m 472.38,461.74 v -1.06 h -8.49 v -2.61 h 9.73 a 1.28,1.28 0 0 1 0.55,0.14 2,2 0 0 1 0.5,0.35 1.82,1.82 0 0 1 0.36,0.51 1.25,1.25 0 0 1 0.13,0.57 v 2.91 a 1.25,1.25 0 0 1 -0.13,0.57 1.64,1.64 0 0 1 -0.36,0.5 1.77,1.77 0 0 1 -0.5,0.36 1.28,1.28 0 0 1 -0.55,0.14 h -0.79 l 2.66,3.67 h -3.15 l -2.83,-3.67 h -2.84 v 3.67 h -2.78 v -6.05 z"
             transform="translate(-54.73,-309.67)"
             id="path14436"
             style="fill:#ffffff;stroke-width:1.14695" />
          <path
             class="cls-2"
             d="M 480.09,467.79 H 477 l 4,-8.33 a 2.11,2.11 0 0 1 2,-1.39 h 1.24 a 1.53,1.53 0 0 1 1.05,0.35 3.12,3.12 0 0 1 0.73,1 l 4,8.33 h -3.09 l -0.78,-1.63 h -5.23 z m 3.4,-6.74 -1.49,2.8 h 3 z"
             transform="translate(-54.73,-309.67)"
             id="path14438"
             style="fill:#ffffff;stroke-width:1.14695" />
          <path
             class="cls-2"
             d="m 489.11,458.07 h 11.54 v 2.61 h -4.38 v 7.11 h -2.78 v -7.11 h -4.38 z"
             transform="translate(-54.73,-309.67)"
             id="path14440"
             style="fill:#ffffff;stroke-width:1.14695" />
          <path
             class="cls-2"
             d="m 505.65,467.79 h -2.8 v -9.72 h 2.8 z"
             transform="translate(-54.73,-309.67)"
             id="path14442"
             style="fill:#ffffff;stroke-width:1.14695" />
          <path
             class="cls-2"
             d="m 518.89,458.21 a 2,2 0 0 1 0.5,0.35 1.82,1.82 0 0 1 0.36,0.51 1.25,1.25 0 0 1 0.13,0.57 v 6.58 a 1.31,1.31 0 0 1 -0.13,0.57 1.92,1.92 0 0 1 -0.86,0.86 1.28,1.28 0 0 1 -0.55,0.14 h -8.94 a 1.28,1.28 0 0 1 -0.55,-0.14 1.64,1.64 0 0 1 -0.5,-0.36 1.77,1.77 0 0 1 -0.36,-0.5 1.33,1.33 0 0 1 -0.14,-0.57 v -6.58 a 1.26,1.26 0 0 1 0.14,-0.57 1.82,1.82 0 0 1 0.36,-0.51 1.8,1.8 0 0 1 0.5,-0.35 1.28,1.28 0 0 1 0.55,-0.14 h 8.94 a 1.28,1.28 0 0 1 0.55,0.14 z m -8.26,2.47 v 4.5 h 6.47 v -4.5 z"
             transform="translate(-54.73,-309.67)"
             id="path14444"
             style="fill:#ffffff;stroke-width:1.14695" />
          <path
             class="cls-2"
             d="m 524.31,458.09 a 2.12,2.12 0 0 1 0.84,0.4 16.12,16.12 0 0 1 1.32,1.08 c 0.54,0.48 1.21,1.1 2,1.85 l 2.86,2.72 v -6.07 h 2.79 v 8.5 a 0.9,0.9 0 0 1 -0.13,0.44 1.54,1.54 0 0 1 -0.34,0.39 1.85,1.85 0 0 1 -0.5,0.28 1.73,1.73 0 0 1 -0.6,0.11 H 532 531.9 a 2.22,2.22 0 0 1 -0.84,-0.41 15.92,15.92 0 0 1 -1.37,-1.1 c -0.56,-0.49 -1.23,-1.11 -2,-1.86 -0.77,-0.75 -1.73,-1.65 -2.81,-2.7 v 6.09 h -2.78 v -8.5 a 0.94,0.94 0 0 1 0.12,-0.44 1.39,1.39 0 0 1 0.34,-0.39 1.62,1.62 0 0 1 0.5,-0.28 1.8,1.8 0 0 1 0.62,-0.11 h 0.52 z"
             transform="translate(-54.73,-309.67)"
             id="path14446"
             style="fill:#ffffff;stroke-width:1.14695" />
        </g>
      </g>
      <line
         class="cls-10"
         x1="50.907543"
         y1="874.99609"
         x2="462.87112"
         y2="874.99609"
         id="line14452"
         style="fill:none;stroke:#ffffff;stroke-width:2px;stroke-miterlimit:10" />
    </g>
  </g>
</svg>
