<?xml version="1.0" encoding="UTF-8" standalone="no"?>
<svg
   xmlns:dc="http://purl.org/dc/elements/1.1/"
   xmlns:cc="http://creativecommons.org/ns#"
   xmlns:rdf="http://www.w3.org/1999/02/22-rdf-syntax-ns#"
   xmlns:svg="http://www.w3.org/2000/svg"
   xmlns="http://www.w3.org/2000/svg"
   xmlns:sodipodi="http://sodipodi.sourceforge.net/DTD/sodipodi-0.dtd"
   xmlns:inkscape="http://www.inkscape.org/namespaces/inkscape"
   version="1.0"
   width="1280.000000pt"
   height="956.000000pt"
   viewBox="0 0 1280.000000 956.000000"
   preserveAspectRatio="xMidYMid meet"
   id="svg20"
   sodipodi:docname="splash3.svg"
   inkscape:version="1.0.2-2 (e86c870879, 2021-01-15)">
  <defs
     id="defs24" />
  <sodipodi:namedview
     pagecolor="#ffffff"
     bordercolor="#666666"
     borderopacity="1"
     objecttolerance="10"
     gridtolerance="10"
     guidetolerance="10"
     inkscape:pageopacity="0"
     inkscape:pageshadow="2"
     inkscape:window-width="1304"
     inkscape:window-height="745"
     id="namedview22"
     showgrid="false"
     inkscape:zoom="0.3875523"
     inkscape:cx="853.33333"
     inkscape:cy="637.33333"
     inkscape:window-x="-8"
     inkscape:window-y="-8"
     inkscape:window-maximized="1"
     inkscape:current-layer="svg20" />
  <metadata
     id="metadata2">
Created by potrace 1.15, written by Peter Selinger 2001-2017
<rdf:RDF>
  <cc:Work
     rdf:about="">
    <dc:format>image/svg+xml</dc:format>
    <dc:type
       rdf:resource="http://purl.org/dc/dcmitype/StillImage" />
  </cc:Work>
</rdf:RDF>
</metadata>
  <g
     transform="translate(0.000000,956.000000) scale(0.100000,-0.100000)"
     fill="#000000"
     stroke="none"
     id="g18"
     style="fill:#222260;fill-opacity:1">
    <path
       d="M9826 9545 c-14 -37 -18 -144 -6 -179 16 -48 73 -106 105 -106 33 0 45 27 45 97 0 67 -30 126 -89 176 -37 31 -47 33 -55 12z"
       id="path4"
       style="fill:#222260;fill-opacity:1" />
    <path
       d="M7023 9145 c-15 -42 55 -136 91 -122 19 7 21 49 5 80 -25 48 -83 74 -96 42z"
       id="path6"
       style="fill:#222260;fill-opacity:1" />
    <path
       d="M10790 8871 c-121 -25 -210 -136 -210 -260 0 -51 40 -130 88 -173 57 -52 172 -108 219 -108 84 1 173 92 213 219 33 103 28 139 -27 212 -32 42 -63 70 -93 85 -50 24 -137 36 -190 25z"
       id="path8"
       style="fill:#222260;fill-opacity:1" />
    <path
       d="M8325 8740 c-105 -10 -215 -32 -356 -70 -111 -31 -145 -44 -319 -120 -94 -42 -164 -65 -225 -75 -22 -3 -58 -16 -80 -27 -32 -17 -62 -21 -153 -24 l-113 -2 -85 -82 c-47 -45 -102 -88 -122 -97 -40 -17 -183 -22 -238 -9 -25 6 -45 1 -100 -27 -92 -46 -132 -59 -304 -97 -80 -18 -167 -43 -195 -55 -27 -12 -76 -30 -107 -39 -31 -10 -105 -46 -165 -79 -59 -33 -137 -75 -173 -93 -36 -18 -96 -53 -133 -78 -38 -25 -74 -46 -81 -46 -7 0 -33 -16 -58 -34 -25 -19 -74 -51 -109 -70 -144 -80 -208 -151 -424 -466 -88 -128 -112 -192 -214 -562 -29 -105 -29 -234 0 -353 12 -49 26 -108 31 -129 7 -29 33 -63 107 -140 117 -121 152 -170 220 -301 90 -174 117 -317 91 -492 -5 -38 -14 -120 -20 -183 -34 -349 -38 -374 -75 -463 -19 -47 -35 -91 -35 -97 0 -5 -15 -34 -34 -63 -46 -70 -65 -186 -46 -275 7 -34 10 -72 6 -86 -11 -45 -101 -143 -143 -156 -71 -22 -111 -56 -123 -102 -15 -54 -43 -85 -100 -110 -25 -10 -76 -49 -115 -87 -93 -89 -149 -132 -215 -166 -30 -15 -73 -44 -96 -65 -22 -20 -62 -45 -90 -55 -67 -25 -225 -90 -304 -125 -204 -91 -264 -96 -600 -44 -135 21 -265 37 -290 37 -50 0 -211 -38 -252 -59 -15 -8 -38 -33 -52 -57 -14 -23 -39 -56 -56 -72 -28 -26 -30 -34 -30 -96 0 -126 11 -154 105 -258 47 -51 85 -96 85 -100 0 -14 127 -96 210 -138 73 -35 92 -50 129 -100 24 -32 52 -75 63 -96 18 -36 18 -40 3 -63 -8 -13 -43 -38 -78 -55 -34 -18 -84 -50 -112 -73 -83 -70 -156 -121 -235 -166 -80 -47 -156 -112 -201 -173 -15 -21 -87 -79 -166 -133 -175 -121 -185 -130 -181 -169 3 -25 8 -30 34 -33 32 -3 56 13 253 168 36 28 99 69 140 92 48 27 111 75 171 132 73 70 107 95 149 110 29 10 68 31 85 46 17 14 56 41 86 60 91 56 119 87 126 142 7 48 7 48 38 43 17 -3 94 -12 171 -21 156 -17 264 -40 373 -78 95 -34 193 -56 242 -56 22 0 84 -11 137 -25 126 -33 158 -28 215 31 28 28 64 52 103 67 50 19 65 31 93 72 54 81 80 90 262 90 225 0 346 -13 395 -40 22 -13 82 -40 133 -60 81 -33 100 -37 145 -31 213 26 253 17 352 -75 79 -74 162 -106 315 -120 114 -11 132 -10 260 15 57 11 156 18 296 20 117 2 217 6 222 10 22 14 219 -68 287 -119 17 -13 73 -40 125 -60 52 -21 106 -46 120 -56 39 -27 230 -56 294 -44 28 6 41 16 60 50 49 82 112 97 187 44 61 -44 69 -56 69 -112 0 -44 -4 -54 -36 -83 -19 -19 -42 -34 -49 -34 -19 0 -53 -46 -66 -90 -10 -33 -8 -42 21 -93 25 -45 41 -61 83 -81 74 -37 132 -35 191 6 25 18 79 56 120 85 104 71 183 86 326 61 39 -6 207 -11 425 -12 313 -1 368 -4 419 -19 67 -20 133 -69 166 -123 13 -20 29 -34 38 -32 8 2 32 36 53 77 58 115 122 169 304 258 28 14 59 33 70 43 40 36 205 131 277 160 64 25 82 39 148 111 41 46 127 135 190 199 104 105 121 118 180 138 36 12 79 22 95 22 18 0 49 14 79 35 27 19 55 35 61 35 6 0 53 20 104 45 108 52 155 57 279 26 126 -31 148 -33 165 -16 24 23 46 111 64 252 14 108 14 147 5 251 -13 130 -38 262 -52 262 -4 0 -18 -15 -31 -34 -15 -22 -37 -38 -62 -46 -56 -16 -67 -3 -67 80 0 59 4 73 25 99 14 16 42 35 62 42 64 21 101 49 113 84 6 19 14 80 18 136 l7 102 58 41 c32 23 63 49 69 59 5 11 11 64 13 118 4 123 18 152 72 147 36 -3 36 -3 60 62 45 117 73 247 73 335 0 95 -39 270 -73 325 -33 54 -29 154 18 470 24 156 24 155 131 301 79 106 90 137 109 301 8 71 24 165 35 208 27 105 25 178 -6 296 -41 154 -49 239 -36 381 7 68 19 140 28 161 8 20 33 90 55 156 77 230 156 356 329 526 103 101 122 126 162 207 80 159 87 268 26 389 -28 57 -41 72 -85 96 -63 35 -167 53 -222 38 -58 -15 -155 -85 -269 -193 -122 -116 -171 -149 -314 -211 -128 -56 -229 -73 -333 -56 -117 19 -339 80 -368 101 -23 16 -36 19 -69 14 -32 -6 -51 -2 -89 16 -89 41 -70 93 39 109 76 10 80 13 87 53 12 63 -52 246 -90 261 -9 3 -43 6 -75 6 -34 0 -76 8 -102 18 -24 11 -60 22 -80 26 -48 9 -341 101 -392 123 l-39 17 -22 -29 c-13 -15 -26 -43 -30 -61 -6 -36 -77 -106 -154 -151 -86 -52 -275 -38 -373 27 -24 16 -76 58 -116 94 -40 36 -87 73 -105 82 -17 9 -42 25 -55 35 -62 48 -282 142 -409 175 -157 40 -167 41 -158 14 14 -44 -80 -17 -262 76 -105 53 -108 54 -187 53 -45 -1 -117 -5 -161 -9z m-2579 -1801 c69 -25 123 -110 124 -194 0 -106 -47 -148 -191 -167 -72 -9 -92 -8 -141 6 -98 28 -148 88 -148 177 0 22 7 56 16 74 42 89 227 146 340 104z m5551 -3980 c36 -13 43 -25 43 -76 0 -51 -27 -85 -59 -76 -27 7 -79 66 -87 99 -13 50 39 77 103 53z m-3871 -1054 c22 -33 12 -55 -26 -55 -44 0 -87 50 -63 73 3 4 21 7 39 7 25 0 38 -7 50 -25z"
       id="path10"
       style="fill:#222260;fill-opacity:1" />
    <path
       d="M10073 8646 c-21 -45 -11 -80 36 -127 53 -54 105 -62 155 -26 17 12 17 16 3 43 -22 43 -132 144 -156 144 -14 0 -27 -11 -38 -34z"
       id="path12"
       style="fill:#222260;fill-opacity:1" />
    <path
       d="M10879 2038 c-55 -45 -95 -176 -86 -281 5 -56 57 -178 94 -219 41 -46 72 -10 97 114 25 120 21 156 -26 271 -48 120 -57 133 -79 115z"
       id="path14"
       style="fill:#222260;fill-opacity:1" />
    <path
       d="M1865 1276 c-57 -18 -174 -88 -244 -146 -32 -27 -108 -73 -168 -104 -91 -45 -146 -64 -307 -105 -369 -94 -527 -194 -759 -483 -79 -99 -123 -133 -231 -182 -106 -48 -133 -70 -147 -116 -10 -34 -9 -42 10 -73 36 -59 87 -72 224 -59 61 7 159 16 217 22 383 36 557 87 726 215 88 66 118 107 214 300 112 223 153 277 362 479 188 182 207 205 208 244 0 18 -5 22 -32 21 -18 0 -51 -6 -73 -13z"
       id="path16"
       style="fill:#222260;fill-opacity:1" />
  </g>
</svg>
